<svg width="20" height="19" viewBox="0 0 20 19" fill="none" xmlns="http://www.w3.org/2000/svg">
<path fill-rule="evenodd" clip-rule="evenodd" d="M5.09766 2.5479C2.37125 3.97825 0.176016 5.15313 0.126953 5.20821C0.0477734 5.29704 0.0390625 5.34704 0.0390625 5.71297C0.0390625 6.32567 0.122344 6.43481 0.613867 6.46633L0.898438 6.48462L0.898516 6.82129C0.898555 7.2138 0.963555 7.382 1.16789 7.51848C1.28801 7.59872 1.34652 7.60715 1.78312 7.60715H2.26562V7.95794C2.26562 8.48071 2.39164 8.72094 2.70746 8.8002L2.8125 8.82657V10.8163V12.806L2.9084 12.9019C2.96113 12.9546 3.0498 12.9978 3.10547 12.9978C3.16113 12.9978 3.2498 12.9546 3.30254 12.9019L3.39844 12.806V10.812V8.81809H3.86719H4.33594V11.8064V14.7947H3.86719H3.39844L3.39719 14.3943C3.39637 14.1278 3.37898 13.9715 3.3452 13.927C3.27086 13.8292 3.12125 13.7831 3.01137 13.8241C2.84328 13.8868 2.81508 13.9676 2.81375 14.39L2.8125 14.7862L2.70746 14.8125C2.39164 14.8918 2.26562 15.132 2.26562 15.6548V16.0056H1.77988C1.25312 16.0056 1.13266 16.0333 0.963437 16.1936C0.792227 16.3558 0.766172 16.4284 0.743633 16.806C0.724961 17.1188 0.714141 17.1584 0.644531 17.1688C0.444609 17.1987 0.382344 17.2262 0.248789 17.3434C0.0416797 17.5253 0 17.658 0 18.1352C0 18.5775 0.0420703 18.722 0.203789 18.8352C0.28207 18.8901 1.265 18.8962 10 18.8962C18.735 18.8962 19.7179 18.8901 19.7962 18.8352C19.9579 18.722 20 18.5775 20 18.1352C20 17.658 19.9583 17.5253 19.7512 17.3434C19.6177 17.2262 19.5554 17.1987 19.3555 17.1688C19.2859 17.1584 19.275 17.1188 19.2564 16.806C19.2338 16.4284 19.2078 16.3558 19.0366 16.1936C18.8673 16.0333 18.7469 16.0056 18.2201 16.0056H17.7344V15.6548C17.7344 15.132 17.6084 14.8918 17.2925 14.8125L17.1875 14.7862V11.8064V8.82657L17.2925 8.8002C17.6084 8.72094 17.7344 8.48071 17.7344 7.95794V7.60715H18.2169C18.6535 7.60715 18.712 7.59872 18.8321 7.51848C19.0364 7.382 19.1014 7.2138 19.1015 6.82129L19.1016 6.48462L19.3861 6.46633C19.8777 6.43481 19.9609 6.32567 19.9609 5.71297C19.9609 5.34708 19.9522 5.29704 19.873 5.20805C19.7379 5.05614 13.0155 1.43637 12.8674 1.43579C12.7314 1.4352 12.6361 1.52067 12.5967 1.67844C12.5754 1.76391 12.5921 1.80637 12.6816 1.89403C12.7429 1.95407 14.2738 2.80266 16.0836 3.77977L19.3743 5.55637L19.3746 5.72239L19.375 5.8884H10H0.625L0.625781 5.72239L0.626563 5.55637L5.31703 3.09544C7.8968 1.74192 10.0389 0.619576 10.0772 0.601295C10.1294 0.576451 10.3227 0.663131 10.845 0.945513C11.2289 1.15305 11.5872 1.33196 11.6412 1.34309C11.8928 1.39473 12.0585 1.03778 11.8652 0.860435C11.8169 0.81606 11.4609 0.608209 11.0742 0.398521C10.51 0.0926619 10.3325 0.0142244 10.1758 0.00176343C9.98266 -0.0135881 9.92566 0.0149664 5.09766 2.5479ZM18.5156 6.74778V7.02122H10H1.48438V6.74778V6.47434H10H18.5156V6.74778ZM4.87469 7.92942L4.88609 8.23215H3.86883H2.85156V7.94571C2.85156 7.78813 2.86359 7.64723 2.87824 7.63254C2.89293 7.61786 3.34559 7.61051 3.8841 7.61626L4.86328 7.62669L4.87469 7.92942ZM6.36719 7.9795C6.36719 8.20758 6.38805 8.4018 6.42105 8.48075C6.48457 8.63278 6.65352 8.77575 6.80559 8.80618L6.91406 8.82786V11.8082V14.7884L6.79871 14.8138C6.63926 14.8488 6.48512 14.9787 6.42105 15.132C6.38805 15.2109 6.36719 15.4052 6.36719 15.6332V16.0056H5.91797H5.46875V15.6548C5.46875 15.132 5.34273 14.8918 5.02691 14.8125L4.92188 14.7862V11.8064V8.82657L5.02691 8.8002C5.34273 8.72094 5.46875 8.48071 5.46875 7.95794V7.60715H5.91797H6.36719V7.9795ZM8.94531 7.91965V8.23215H7.94922H6.95312V7.91965V7.60715H7.94922H8.94531V7.91965ZM10.4688 8.06376C10.4875 8.48219 10.4932 8.50594 10.6032 8.62059C10.6664 8.68645 10.7763 8.76133 10.8473 8.78704L10.9766 8.83379V11.8064V14.7789L10.8473 14.8257C10.7763 14.8514 10.6664 14.9263 10.6032 14.9922C10.4932 15.1068 10.4875 15.1306 10.4688 15.549L10.4492 15.9861H10H9.55078L9.53125 15.549C9.51254 15.1306 9.50684 15.1068 9.39684 14.9922C9.33363 14.9263 9.22375 14.8514 9.1527 14.8257L9.02344 14.7789V11.8064V8.83379L9.15746 8.78532C9.23121 8.75864 9.34547 8.6754 9.41137 8.60032C9.52855 8.46688 9.53125 8.45481 9.53125 8.06153C9.53125 7.84028 9.54352 7.64696 9.55852 7.632C9.57348 7.617 9.78004 7.60969 10.0175 7.61571L10.4492 7.62669L10.4688 8.06376ZM13.0469 7.91965V8.23215H12.0508H11.0547V7.91965V7.60715H12.0508H13.0469V7.91965ZM14.5312 7.95794C14.5312 8.48071 14.6573 8.72094 14.9731 8.8002L15.0781 8.82657V11.8064V14.7862L14.9731 14.8125C14.6573 14.8918 14.5312 15.132 14.5312 15.6548V16.0056H14.082H13.6328V15.6332C13.6328 15.4052 13.612 15.2109 13.5789 15.132C13.5149 14.9787 13.3607 14.8488 13.2013 14.8138L13.0859 14.7884V11.8082V8.82786L13.1944 8.80618C13.3465 8.77575 13.5154 8.63278 13.5789 8.48075C13.612 8.4018 13.6328 8.20758 13.6328 7.9795V7.60715H14.082H14.5312V7.95794ZM17.1403 7.92942L17.1517 8.23215H16.1345H15.1172V7.94571C15.1172 7.78813 15.1292 7.64723 15.1439 7.63254C15.1586 7.61786 15.6112 7.61051 16.1497 7.61626L17.1289 7.62669L17.1403 7.92942ZM8.4375 11.8064V14.7947H7.96875H7.5V11.8064V8.81809H7.96875H8.4375V11.8064ZM12.5 11.8064V14.7947H12.0312H11.5625V11.8064V8.81809H12.0312H12.5V11.8064ZM16.6016 11.8064V14.7947H16.1328H15.6641V11.8064V8.81809H16.1328H16.6016V11.8064ZM4.87469 15.6833L4.86328 15.9861H3.86719H2.87109L2.85969 15.6833L2.84828 15.3806H3.86719H4.88609L4.87469 15.6833ZM8.94531 15.6931V16.0056H7.94922H6.95312V15.6931V15.3806H7.94922H8.94531V15.6931ZM13.0469 15.6931V16.0056H12.0508H11.0547V15.6931V15.3806H12.0508H13.0469V15.6931ZM17.1403 15.6833L17.1289 15.9861H16.1328H15.1367L15.1253 15.6833L15.1139 15.3806H16.1328H17.1517L17.1403 15.6833ZM18.6639 16.8747L18.6754 17.1384H10.0018H1.32812V16.891C1.32812 16.7549 1.33988 16.6318 1.35426 16.6175C1.36863 16.6031 5.26656 16.5958 10.0164 16.6012L18.6523 16.6111L18.6639 16.8747ZM19.4061 18.0466L19.4176 18.3103H10.0018H0.585938V18.0629C0.585938 17.9268 0.597695 17.8037 0.61207 17.7894C0.626445 17.775 4.85836 17.7677 10.0164 17.7731L19.3945 17.7829L19.4061 18.0466Z" fill="white"/>
</svg>
