<svg width="20" height="14" viewBox="0 0 20 14" fill="none" xmlns="http://www.w3.org/2000/svg">
<path fill-rule="evenodd" clip-rule="evenodd" d="M1.72211 0.0295947C1.42622 0.0731172 0.917808 0.316405 0.678982 0.528734C0.450802 0.73163 0.228415 1.06388 0.099452 1.39464L0 1.64963V6.67899V11.7083L0.099452 11.9633C0.228532 12.2944 0.451468 12.6273 0.676869 12.8258C0.95816 13.0734 1.42963 13.2869 1.80039 13.3346C2.00896 13.3615 4.81808 13.3712 10.2153 13.3636L18.317 13.3522L18.5714 13.2605C18.8889 13.1461 19.3077 12.8709 19.4926 12.6552C19.6715 12.4466 19.8333 12.1593 19.9268 11.8845C19.9968 11.6786 20 11.4514 20 6.67899C20 1.90654 19.9968 1.67938 19.9268 1.47351C19.7011 0.810064 19.2338 0.33707 18.5651 0.0954264L18.317 0.00579818L10.137 0.000436101C5.58086 -0.0025776 1.85292 0.0103384 1.72211 0.0295947ZM18.3927 0.927951C18.8644 1.10443 19.1474 1.53582 19.1864 2.13805L19.2092 2.49112H10.0004H0.791507L0.811429 2.14866C0.840548 1.64748 1.01022 1.30263 1.3389 1.07648C1.6872 0.836835 1.06826 0.853039 9.98873 0.850025C18.1654 0.847285 18.1774 0.847403 18.3927 0.927951ZM19.1585 4.1741V4.99601H10H0.841487V4.1741V3.35218H10H19.1585V4.1741ZM19.1893 8.70443L19.1781 11.5518L19.0744 11.7728C18.9482 12.0422 18.7278 12.2697 18.4706 12.3963L18.2779 12.4911H10H1.72211L1.52943 12.3963C1.27221 12.2697 1.05182 12.0422 0.925558 11.7728L0.821918 11.5518L0.81092 8.70443L0.799922 5.85707H10.0002H19.2005L19.1893 8.70443ZM15.1559 7.54149C14.7569 7.64091 14.4025 7.94783 14.2662 8.3121C14.1908 8.51359 14.1843 8.59879 14.1953 9.24051C14.2065 9.89574 14.2143 9.9611 14.3023 10.1398C14.4288 10.397 14.6564 10.6174 14.9257 10.7436C15.1377 10.843 15.1742 10.8473 15.8121 10.8473C16.3565 10.8473 16.5149 10.8342 16.6834 10.7755C16.9573 10.68 17.2807 10.3824 17.4019 10.1142C17.4893 9.92083 17.4951 9.86282 17.4951 9.18388C17.4951 8.50494 17.4893 8.44693 17.4019 8.25355C17.2863 7.99774 16.9603 7.69108 16.704 7.59707C16.4872 7.51754 15.4077 7.47879 15.1559 7.54149ZM2.69468 8.40799C2.46806 8.51766 2.4299 8.88568 2.62603 9.06999L2.72642 9.16431L5.35538 9.17613C7.73483 9.18686 7.99597 9.18185 8.10693 9.12353C8.34556 8.99813 8.39432 8.66807 8.20262 8.47637L8.08822 8.36196L5.43354 8.36462C3.67949 8.36635 2.75029 8.3811 2.69468 8.40799ZM16.4925 8.4258C16.6455 8.53292 16.6928 8.71194 16.6928 9.18388C16.6928 9.94545 16.6319 10.0058 15.864 10.0058C15.044 10.0058 15.0098 9.97284 15.0098 9.18388C15.0098 8.63202 15.0483 8.491 15.2219 8.40678C15.2667 8.38502 15.5504 8.36607 15.8523 8.36462C16.2996 8.36247 16.4182 8.37378 16.4925 8.4258ZM2.73249 10.0631C2.60207 10.1198 2.48532 10.2961 2.48532 10.4363C2.48532 10.5806 2.6034 10.7537 2.74106 10.8112C2.93671 10.893 7.86333 10.8939 8.05875 10.8123C8.22708 10.742 8.31703 10.611 8.31703 10.4363C8.31703 10.2616 8.22708 10.1307 8.05875 10.0604C7.86634 9.97997 2.91777 9.98247 2.73249 10.0631Z" fill="white"/>
</svg>
