<svg width="18" height="19" viewBox="0 0 18 19" fill="none" xmlns="http://www.w3.org/2000/svg">
<path fill-rule="evenodd" clip-rule="evenodd" d="M9.93178 0.0372527C9.85642 0.0653841 9.74557 0.12691 9.68546 0.173989C9.62531 0.221105 8.51904 1.81142 7.22703 3.70801L4.8779 7.15637L4.21375 7.16628L3.54959 7.17619L3.56937 7.05739C3.58026 6.99205 3.64615 6.34238 3.7158 5.61369C3.78542 4.88499 3.85178 4.21975 3.86325 4.13539C3.88321 3.98831 3.89461 3.97648 4.14089 3.84707C4.38976 3.71625 4.73721 3.41607 4.88276 3.20608L4.95387 3.10346L6.00493 3.20942C6.71334 3.28082 7.08743 3.30467 7.1524 3.28249C7.35556 3.21312 7.3703 2.90371 7.17451 2.8179C7.12928 2.79808 6.61246 2.73525 6.02599 2.67826C4.84171 2.56319 4.75194 2.5682 4.57531 2.75932C4.51746 2.82193 4.38664 2.96426 4.28456 3.07559C4.17244 3.19791 4.0161 3.31886 3.8896 3.38118C3.56897 3.53912 3.45659 3.63603 3.39547 3.80722C3.36255 3.89945 3.27717 4.61159 3.18443 5.56831L3.02864 7.17452H2.85491H2.68115L2.701 7.0384C2.71193 6.96356 2.82667 5.82683 2.95597 4.51243C3.0853 3.19798 3.20762 2.09171 3.22777 2.05404C3.2824 1.95196 3.38309 1.91113 3.57801 1.91207C3.67417 1.91251 4.64174 2.00133 5.72823 2.10943C7.47724 2.28344 7.71492 2.30014 7.80207 2.25506C7.97674 2.16471 7.97021 1.87784 7.79176 1.80336C7.74646 1.78445 7.105 1.71043 6.36632 1.63889C5.62765 1.56734 4.68425 1.475 4.26986 1.43369C3.84855 1.3917 3.44574 1.36919 3.35608 1.38262C3.02849 1.43177 2.74536 1.71697 2.6769 2.06681C2.6565 2.17092 2.55472 3.12996 2.45073 4.19804L2.26161 6.14002L1.80396 6.16045C1.41179 6.17798 1.32112 6.19385 1.17055 6.27134C0.861903 6.43019 0.688469 6.73259 0.683822 7.12008C0.681717 7.29558 0.676054 7.30516 0.512239 7.41046C0.419097 7.47036 0.289439 7.58985 0.224138 7.67602C-0.0177919 7.99538 -0.00614009 7.71599 0.00445908 12.948L0.0140782 17.6829L0.0994524 17.8718C0.207404 18.1104 0.502548 18.3925 0.740158 18.4842C0.917186 18.5524 1.1051 18.5541 8.58053 18.5541H16.2395L16.4288 18.4685C16.6532 18.367 16.9205 18.0947 17.0316 17.8542C17.1078 17.6892 17.1111 17.6326 17.1214 16.2945L17.1321 14.9061L17.2666 14.9059C17.579 14.9054 17.8539 14.7498 17.9505 14.5188C17.9897 14.425 18 14.0808 18 12.8731C18 11.4234 17.9964 11.3388 17.9282 11.2053C17.8174 10.9881 17.6647 10.899 17.3746 10.8827L17.1288 10.8688V9.55458C17.1288 8.45397 17.1194 8.20849 17.0706 8.04424C17.0064 7.82815 16.8522 7.58216 16.7115 7.47152C16.6291 7.40673 16.6207 7.37482 16.6207 7.13104C16.6207 6.80903 16.5103 6.54903 16.2998 6.37487C16.1504 6.25134 15.8789 6.15817 15.6683 6.15817H15.5277L15.9519 5.53699C16.1876 5.1919 16.3991 4.84096 16.4277 4.7475C16.5166 4.45725 16.4218 4.10966 16.1975 3.9037C16.1408 3.85161 15.6615 3.51469 15.1324 3.15497C14.6034 2.79525 13.3865 1.96645 12.4282 1.31318C11.4699 0.659954 10.6383 0.100775 10.5801 0.0706111C10.4303 -0.00714041 10.0968 -0.0242733 9.93178 0.0372527ZM10.3824 0.570914C10.602 0.688412 15.7474 4.21844 15.8312 4.30901C15.991 4.48194 15.9671 4.56804 15.6134 5.09124C15.4387 5.34965 15.0507 5.92346 14.7513 6.36634L14.2068 7.17158L13.9977 7.17307L13.7886 7.17452L14.2125 6.55226C14.4456 6.21 14.6581 5.86669 14.6847 5.78934C14.7411 5.62585 14.718 5.49993 14.5662 5.14181C14.4811 4.94129 14.4646 4.84703 14.4564 4.51402C14.4484 4.19209 14.4332 4.10051 14.3714 4.0004C14.3179 3.91397 13.8689 3.58725 12.8248 2.87514C12.0156 2.32326 11.3125 1.8561 11.2624 1.83701C11.104 1.77682 10.936 1.79878 10.6432 1.91792C10.3937 2.01944 10.312 2.03458 9.97109 2.04224C9.51224 2.05258 9.38276 2.10108 9.22559 2.32145C9.16581 2.40526 8.41051 3.5111 7.54718 4.77882C6.68382 6.04655 5.95727 7.10512 5.93255 7.13126C5.90388 7.16157 5.82108 7.17467 5.70344 7.16755L5.51922 7.15637L7.73125 3.90766C8.94787 2.12086 9.97741 0.630334 10.0191 0.595415C10.1046 0.523834 10.2732 0.512437 10.3824 0.570914ZM12.5371 3.31889L13.9164 4.25986L13.9381 4.65548C13.9551 4.96482 13.9815 5.10645 14.0593 5.30515C14.114 5.4449 14.1614 5.58454 14.1647 5.61543C14.1679 5.64632 13.9418 6.00923 13.6623 6.42184L13.1541 7.17209L12.6987 7.17329L12.2433 7.17452L12.2015 6.93031C12.1446 6.59832 11.9109 6.13871 11.6627 5.87057C11.4 5.58686 11.1207 5.40577 10.7473 5.27709C9.98982 5.01596 9.08174 5.23027 8.52227 5.80219C8.20883 6.12263 7.97326 6.57676 7.91681 6.96933L7.88991 7.15637L7.22529 7.16628C6.69471 7.1742 6.56633 7.16686 6.58876 7.12999C6.60422 7.10458 7.30954 6.06698 8.15609 4.82419L9.6953 2.56461H10.0344C10.2962 2.56461 10.4381 2.54396 10.6567 2.47401C10.8125 2.42417 10.9636 2.36813 10.9924 2.34947C11.0225 2.33009 11.069 2.32892 11.1013 2.34675C11.1324 2.36392 11.7784 2.80139 12.5371 3.31889ZM10.4668 5.74193C10.7621 5.81885 11.0053 5.95918 11.2264 6.18027C11.4539 6.40779 11.5921 6.65241 11.6617 6.95082L11.7139 7.17452H10.0639H8.41388L8.43857 7.0384C8.6055 6.11776 9.56212 5.50628 10.4668 5.74193ZM2.19653 6.81608C2.18404 6.87847 2.17384 6.98465 2.17384 7.05202V7.17452H1.70196H1.23008V7.04468C1.23008 6.94958 1.25846 6.88646 1.33618 6.80874C1.44025 6.70468 1.44979 6.70264 1.83075 6.70264H2.21921L2.19653 6.81608ZM15.9434 6.7772C16.0459 6.85789 16.1468 7.12323 16.0914 7.16665C16.073 7.18099 15.7851 7.18752 15.4514 7.1812L14.8448 7.16966L14.9977 6.93691L15.1506 6.70417L15.4996 6.70341C15.7974 6.70275 15.8625 6.71357 15.9434 6.7772ZM16.3178 7.84862C16.5471 8.03186 16.5842 8.14406 16.5843 8.65369L16.5844 9.09835H8.56238H0.540407V8.6428C0.540407 8.32123 0.555471 8.15847 0.591624 8.08925C0.657397 7.96336 0.823608 7.80586 0.939691 7.75951C0.999293 7.7357 3.62909 7.72565 8.60438 7.73018L16.1784 7.73715L16.3178 7.84862ZM16.5844 10.2599V10.877L15.2141 10.8775C14.1212 10.878 13.7968 10.8891 13.6116 10.9328C12.9769 11.0824 12.433 11.569 12.1931 12.2019C12.0902 12.4734 12.0532 13.0285 12.1189 13.3138C12.2812 14.0176 12.8198 14.5896 13.5353 14.8177C13.7074 14.8725 13.9313 14.8835 15.1596 14.8972L16.5844 14.9131V15.5267V16.1403H10.0562C3.5603 16.1403 3.52781 16.1406 3.462 16.2133C3.37725 16.307 3.37725 16.4817 3.462 16.5754C3.52781 16.6481 3.5603 16.6484 10.0562 16.6484H16.5844L16.5838 17.1112C16.5832 17.5239 16.5743 17.5897 16.5013 17.7185C16.4555 17.7995 16.3561 17.8989 16.2751 17.9448L16.1306 18.0266L8.56786 18.0272C0.145515 18.0279 0.862157 18.0502 0.656344 17.7806C0.562767 17.6581 0.558048 17.631 0.546723 17.1505L0.534926 16.6484H1.29992C2.01656 16.6484 2.06956 16.6438 2.13754 16.5758C2.17787 16.5355 2.21014 16.4549 2.21014 16.3944C2.21014 16.3338 2.17787 16.2532 2.13754 16.2129C2.06956 16.1449 2.01656 16.1403 1.30268 16.1403H0.540407V12.8915V9.64282H8.56238H16.5844V10.2599ZM17.4468 12.8825L17.4563 14.3616L15.6864 14.3608C14.651 14.3602 13.8518 14.3449 13.7607 14.3239C13.1905 14.1924 12.733 13.7091 12.6253 13.1247C12.4787 12.3294 13.066 11.5293 13.8742 11.4233C13.9972 11.4072 14.8493 11.3961 15.7676 11.3987L17.4374 11.4033L17.4468 12.8825ZM13.8254 11.8546C13.3665 11.9942 13.0257 12.498 13.074 12.9655C13.1335 13.5419 13.5662 13.9411 14.1321 13.9416C15.067 13.9425 15.5433 12.8796 14.9331 12.1544C14.8814 12.093 14.7392 11.9928 14.617 11.9317C14.4331 11.8399 14.3537 11.8213 14.1556 11.8239C14.0241 11.8256 13.8755 11.8394 13.8254 11.8546ZM14.3484 12.3795C14.7302 12.539 14.7884 13.0737 14.4513 13.3247C14.3109 13.4292 14.019 13.4408 13.8707 13.3476C13.5019 13.116 13.526 12.5737 13.913 12.398C14.092 12.3167 14.1883 12.3126 14.3484 12.3795Z" fill="white"/>
</svg>
