<svg width="20" height="21" viewBox="0 0 20 21" fill="none" xmlns="http://www.w3.org/2000/svg">
<path fill-rule="evenodd" clip-rule="evenodd" d="M15.2617 0.510639L14.751 1.02132L16.1631 2.43384L17.5752 3.84636L10.3636 3.84704C4.20639 3.84764 3.11175 3.85629 2.87676 3.90605C1.49926 4.19789 0.42638 5.25547 0.0983215 6.64487C0.0481992 6.85722 0.0318122 7.25143 0.0177091 8.58414L0 10.2569H0.72459H1.44918V8.71631C1.44918 7.75421 1.46569 7.09605 1.49313 6.96343C1.64278 6.24061 2.23747 5.58866 2.97168 5.34253C3.18206 5.27206 3.51782 5.26821 10.3839 5.25811L17.5757 5.24754L16.1631 6.66082L14.7507 8.0741L15.2622 8.5845L15.7738 9.09493L17.8249 7.0416C19.2366 5.6284 19.8953 4.94179 19.9379 4.83927C20.0362 4.6022 20.0176 4.37042 19.8838 4.16472C19.82 4.06676 18.8689 3.08959 17.7701 1.99327L15.7723 0L15.2617 0.510639ZM18.5878 11.8695C18.5745 13.2881 18.5639 13.5087 18.5004 13.7025C18.3986 14.0135 18.2921 14.2124 18.1024 14.4462C17.8291 14.7829 17.5457 14.9803 17.0783 15.1593L16.8545 15.2451L9.67268 15.2559C5.72268 15.2617 2.49089 15.2528 2.49089 15.236C2.49089 15.2192 3.11724 14.5789 3.88278 13.8131L5.27466 12.4208L4.7746 11.9196L4.27458 11.4184L2.2182 13.4719C1.08723 14.6014 0.138187 15.5706 0.109219 15.6257C0.0204736 15.7944 -0.000240401 15.9714 0.047518 16.1532C0.0882249 16.3084 0.315398 16.5495 2.1831 18.4204L4.2731 20.514L4.77408 20.0131L5.27506 19.5121L3.88298 18.1196C3.11732 17.3537 2.49089 16.7139 2.49089 16.6979C2.49089 16.6818 5.77677 16.6639 9.79288 16.658L17.0949 16.6474L17.4477 16.5367C17.6418 16.4758 17.8943 16.3787 18.0087 16.3208C18.7982 15.9215 19.4519 15.2096 19.7603 14.4131C19.9823 13.8402 19.9996 13.656 19.9996 11.8812V10.2569H19.3013H18.603L18.5878 11.8695Z" fill="white"/>
</svg>
