<svg width="24" height="15" viewBox="0 0 24 15" fill="none" xmlns="http://www.w3.org/2000/svg">
<path fill-rule="evenodd" clip-rule="evenodd" d="M0.300735 0.0228992C0.249163 0.0454033 0.164773 0.110665 0.113201 0.168004C0.0209814 0.270491 0.0191998 0.348317 0.00541608 4.92049C-0.00733623 9.15791 -0.00175709 9.58173 0.0684275 9.71559C0.11081 9.79637 0.197216 9.88605 0.260462 9.91484C0.338289 9.95029 0.911111 9.96726 2.0313 9.96726C3.93519 9.96726 3.86547 9.98264 4.00767 9.53152L4.08465 9.28731L4.91191 10.111C5.68418 10.8799 6.24847 11.3615 7.82553 12.5979C8.83526 13.3896 10.0457 14.2904 10.332 14.4633C10.7209 14.6982 11.4731 14.9419 11.899 14.971C12.3039 14.9987 12.766 14.9037 12.985 14.7478C13.1041 14.6629 13.1409 14.6587 13.3345 14.7074C13.9764 14.8691 14.743 14.5262 15.189 13.878C15.3195 13.6884 15.3269 13.6848 15.5503 13.7063C16.1922 13.768 16.9608 13.3868 17.2748 12.851C17.3825 12.6672 17.4071 12.6526 17.7006 12.5985C18.0903 12.5268 18.3248 12.4084 18.6147 12.1372C18.9328 11.8397 19.0891 11.4912 19.1046 11.0456L19.1167 10.694L19.4605 10.4497C19.6495 10.3154 19.8254 10.205 19.8511 10.2043C19.8769 10.2036 19.9402 10.3331 19.9918 10.4921C20.1533 10.99 20.0872 10.9728 21.9057 10.9898C23.6359 11.006 23.7617 10.991 23.9086 10.75C23.9976 10.6042 24 10.4769 24 5.98216C24 1.51173 23.9971 1.35941 23.91 1.2166C23.7618 0.973602 23.6206 0.952974 22.4979 1.01045C20.7268 1.10103 19.3891 1.32302 18.0894 1.74193C17.1994 2.02881 16.9842 2.18704 17.0289 2.52193L17.052 2.69516L16.8106 2.59962C16.6779 2.54706 16.4427 2.4562 16.288 2.39769C16.1333 2.33922 15.4734 2.06557 14.8215 1.78952C13.4352 1.20258 12.9377 1.0594 12.2842 1.0594C11.557 1.0594 10.9717 1.26217 10.2368 1.76865L9.90533 1.99707H7.92403H5.94274L5.97462 1.69912C5.99937 1.46808 5.98939 1.36808 5.93017 1.25354C5.67986 0.769518 4.33384 0.371197 2.1192 0.125808C1.04754 0.00705261 0.418741 -0.0285319 0.300735 0.0228992ZM1.89294 1.10699C3.1437 1.24604 4.23018 1.44741 4.72175 1.63128L4.97014 1.72416L4.94046 1.94268C4.76015 3.27014 4.06548 5.98413 3.17746 8.83033L3.12992 8.98271H2.05521H0.980545V4.99761C0.980545 2.80581 0.996345 1.0127 1.01571 1.01294C1.03507 1.01317 1.42978 1.05546 1.89294 1.10699ZM23.0158 5.98216V9.96726H21.9424H20.8691L20.6716 9.34605C20.1781 7.79332 19.0529 4.70618 18.5321 3.47549C18.3687 3.08959 18.2506 2.76019 18.2696 2.74345C18.325 2.69437 19.1501 2.47406 19.7339 2.3524C20.6791 2.15544 21.8293 2.01685 22.629 2.00354L23.0158 1.99707V5.98216ZM12.8563 2.1207C13.0418 2.16289 13.3836 2.27612 13.6156 2.37223C13.8477 2.46839 14.4912 2.73647 15.0456 2.96798C15.6 3.19944 16.418 3.52397 16.8634 3.68914L17.6731 3.98938L17.9572 4.71617C18.5183 6.15165 19.5809 9.15585 19.5396 9.18974C19.5304 9.1972 19.3272 9.33391 19.088 9.49359L18.653 9.78385L18.5268 9.62942C18.026 9.01698 17.0712 8.15324 15.3503 6.75598C14.0916 5.73396 13.5705 5.29593 13.1711 4.924C12.7866 4.56595 12.6627 4.48189 12.5195 4.48189C12.4567 4.48189 12.1442 4.58738 11.825 4.71631C11.5058 4.84524 11.198 4.95166 11.1409 4.95279C10.9572 4.95645 10.6785 5.08031 10.6008 5.19288C10.4453 5.41792 10.0473 5.80748 9.8614 5.91643C9.5485 6.09975 9.21052 6.14658 8.8535 6.05605C8.68781 6.01404 8.5241 5.9433 8.48973 5.89885C8.33225 5.69533 8.61589 4.90314 9.07981 4.25085C9.5191 3.63311 10.7038 2.57955 11.2715 2.30172C11.795 2.04555 12.2814 1.98999 12.8563 2.1207ZM8.69241 3.13399C7.47405 4.62545 7.13663 5.83139 7.73472 6.557C8.02413 6.90806 8.78871 7.15134 9.40452 7.08824C10.0036 7.02687 10.512 6.76184 11.0102 6.25137C11.2227 6.03355 11.3578 5.93392 11.4687 5.9131C11.5552 5.89688 11.7969 5.81043 12.0058 5.72102L12.3857 5.55843L12.6256 5.78366C12.899 6.04035 13.5006 6.54205 14.9689 7.73786C17.6891 9.95315 18.3831 10.76 18.0308 11.2975C17.9181 11.4696 17.6805 11.6078 17.4968 11.608C17.2904 11.6082 16.9037 11.2593 15.4542 9.76496C14.1937 8.46535 14.113 8.40482 13.8103 8.53131C13.5244 8.65077 13.4216 8.97624 13.5865 9.24056C13.6347 9.31792 14.3045 10.0227 15.0749 10.8067C15.8452 11.5907 16.4686 12.2553 16.4601 12.2835C16.4105 12.4489 16.1203 12.6343 15.8254 12.6891C15.4428 12.7602 15.3948 12.7243 14.0316 11.3476C13.3321 10.6411 12.7014 10.0409 12.6301 10.0138C12.4435 9.94283 12.2005 10.0345 12.0885 10.2182C11.9748 10.4046 11.9744 10.5608 12.0873 10.7458C12.1361 10.8259 12.6872 11.4113 13.3117 12.0467L14.4474 13.202L14.3191 13.3702C14.0683 13.699 13.7474 13.8191 13.4655 13.6895C13.3542 13.6383 12.8016 13.1185 11.9918 12.3032C10.7279 11.0306 10.6917 10.9987 10.5096 10.9987C10.1518 10.9987 9.90927 11.3443 10.0434 11.6628C10.0797 11.7488 10.5793 12.2999 11.1537 12.8873C11.7282 13.4749 12.1851 13.9686 12.1692 13.9845C12.1233 14.0304 11.5788 13.9244 11.2783 13.811C10.9197 13.6758 10.4328 13.3416 9.09138 12.3102C7.04398 10.7359 6.15873 9.98278 5.28356 9.07047C4.83793 8.606 4.46666 8.20739 4.4585 8.18466C4.4503 8.16192 4.58415 7.65407 4.75593 7.05612C5.09757 5.86683 5.50588 4.27584 5.67222 3.48562L5.77832 2.98162H7.29758H8.81688L8.69241 3.13399Z" fill="white"/>
</svg>
