<svg width="20" height="20" viewBox="0 0 20 20" fill="none" xmlns="http://www.w3.org/2000/svg">
<path fill-rule="evenodd" clip-rule="evenodd" d="M9.19922 0.024618C8.82043 0.0575086 8.18879 0.167665 7.79082 0.270243C4.35059 1.15696 1.73234 4.21376 1.30836 7.83848C1.10633 9.56552 1.45867 11.3881 2.27527 12.8402L2.45105 13.1528L1.33848 14.2609C0.726523 14.8704 0.175039 15.4472 0.11293 15.5427C0.0445312 15.6478 0 15.7688 0 15.8493C0 16.0223 0.103477 16.2368 0.226719 16.3192C0.280547 16.3552 0.878867 16.5703 1.55633 16.7972L2.78809 17.2098L3.20066 18.4416C3.42762 19.119 3.64273 19.7174 3.67871 19.7712C3.81629 19.977 4.14969 20.0541 4.38672 19.9351C4.45547 19.9006 5.14453 19.2418 5.91797 18.4711L7.32422 17.0699L7.51953 17.1295C8.27969 17.3616 9.07457 17.4707 10 17.4699C10.9323 17.4691 11.6934 17.3675 12.4218 17.1465L12.6757 17.0695L14.082 18.4709C14.8554 19.2417 15.5445 19.9006 15.6133 19.9351C15.8503 20.0541 16.1837 19.977 16.3213 19.7712C16.3573 19.7174 16.5724 19.119 16.7993 18.4416L17.2119 17.2098L18.4437 16.7972C19.1211 16.5703 19.7195 16.3552 19.7733 16.3192C19.8965 16.2368 20 16.0223 20 15.8493C20 15.7688 19.9555 15.6478 19.8871 15.5427C19.825 15.4472 19.2734 14.8702 18.6613 14.2607L17.5485 13.1524L17.7064 12.874C18.5935 11.3103 18.9434 9.26501 18.6361 7.4393C18.0102 3.72063 15.2071 0.804852 11.615 0.135907C10.9722 0.0162195 9.87695 -0.0342492 9.19922 0.024618ZM11.25 1.30559C12.0954 1.44614 12.9627 1.73563 13.6719 2.11391C15.9329 3.31993 17.2915 5.50032 17.5415 8.32411C17.6969 10.0786 17.0679 12.0297 15.8672 13.5179C15.5311 13.9345 14.8471 14.5787 14.4112 14.889C13.45 15.5734 12.4077 16.0068 11.2305 16.2116C10.8266 16.2818 10.5747 16.2999 10 16.2999C9.1666 16.2999 8.56043 16.2137 7.82336 15.9904C5.46391 15.2757 3.59461 13.4542 2.81621 11.1112C2.5348 10.2641 2.39113 9.27973 2.44 8.53305C2.63738 5.51505 4.11426 3.18231 6.58203 1.99071C7.42281 1.58474 8.31629 1.33704 9.31641 1.23274C9.63984 1.19899 10.8929 1.24622 11.25 1.30559ZM9.375 2.53845C7.86371 2.72399 6.6443 3.31001 5.6032 4.3511C3.89738 6.05688 3.35437 8.41419 4.12395 10.7727C4.79633 12.8333 6.42164 14.3019 8.55625 14.7775C9.85441 15.0668 11.1731 14.9675 12.4028 14.4877C14.328 13.7367 15.6903 12.0548 16.0921 9.93282C16.3206 8.72677 16.2395 7.65122 15.8393 6.57993C15.6433 6.05524 15.4864 5.75098 15.161 5.26434C14.2327 3.87598 12.7234 2.8913 11.0949 2.61157C10.5659 2.52071 9.78867 2.48763 9.375 2.53845ZM11.1719 3.84005C12.6791 4.19114 13.857 5.10669 14.4927 6.4211C15.1548 7.79036 15.2287 9.27388 14.701 10.6012C14.1607 11.9599 13.0475 13.0287 11.6538 13.5266C10.9555 13.7761 9.89332 13.8603 9.12977 13.7267C8.40848 13.6006 7.60211 13.2564 7.02555 12.8286C4.98391 11.3136 4.37859 8.70829 5.52844 6.38462C6.18375 5.06028 7.3934 4.14102 8.88988 3.83009C9.43086 3.7177 9.47656 3.71407 10.1562 3.73016C10.6221 3.74118 10.8563 3.76653 11.1719 3.84005ZM9.69809 5.11415C9.61445 5.16516 9.3977 5.45255 9.05523 5.96641L8.53852 6.74177L7.64316 6.99118C7.15074 7.12837 6.70578 7.27368 6.65438 7.31411C6.42496 7.49458 6.37547 7.85286 6.54539 8.10321C6.60043 8.18434 6.8702 8.53395 7.14488 8.88016L7.64426 9.50962L7.6057 10.4537C7.56891 11.3541 7.57063 11.4046 7.64324 11.5474C7.72613 11.7104 7.98758 11.8737 8.16258 11.8718C8.21711 11.8712 8.65262 11.7242 9.13043 11.545L9.99914 11.2194L10.8782 11.5461C11.3617 11.7259 11.7977 11.8729 11.847 11.8729C12.0149 11.8729 12.276 11.7062 12.3568 11.5474C12.4294 11.4046 12.4311 11.3541 12.3943 10.4537L12.3557 9.50962L12.8551 8.88016C13.1298 8.53395 13.3996 8.18434 13.4546 8.10321C13.6319 7.84192 13.5638 7.45095 13.3124 7.28755C13.263 7.25544 12.826 7.11891 12.3412 6.98411L11.4596 6.73907L10.9439 5.96509C10.3828 5.12309 10.2954 5.03723 10 5.03723C9.89391 5.03723 9.77422 5.06774 9.69809 5.11415ZM10.3188 7.13692C10.4834 7.38919 10.6593 7.63411 10.7096 7.68126C10.7677 7.73563 11.0084 7.82626 11.3674 7.92887C11.6788 8.01794 11.9402 8.09727 11.9482 8.10516C11.9563 8.11309 11.803 8.31973 11.6078 8.56434C11.4125 8.80895 11.2336 9.05946 11.2102 9.12106C11.1816 9.19618 11.1765 9.42899 11.1948 9.82763L11.222 10.4222L10.7168 10.2345C10.4389 10.1312 10.1565 10.0346 10.0891 10.0199C9.9668 9.99298 9.7548 10.0552 9.0468 10.3256L8.77723 10.4286L8.80398 9.8286C8.8216 9.43333 8.81648 9.19118 8.78902 9.11884C8.76605 9.05848 8.5875 8.80895 8.39223 8.56434C8.19695 8.31973 8.04375 8.11309 8.0518 8.10516C8.05984 8.09727 8.32121 8.01794 8.63262 7.92887C8.99156 7.82626 9.2323 7.73563 9.29035 7.68126C9.3407 7.63411 9.5166 7.38919 9.68121 7.13692C9.84578 6.8847 9.98926 6.67833 10 6.67833C10.0107 6.67833 10.1542 6.8847 10.3188 7.13692ZM3.43961 14.5147C4.04441 15.2192 4.99109 15.976 5.825 16.4216L6.12926 16.5841L5.26133 17.4514L4.39344 18.3187L4.0852 17.3907C3.83254 16.6302 3.75512 16.4409 3.65605 16.3418C3.55699 16.2428 3.3677 16.1654 2.60723 15.9127L1.67934 15.6045L2.39199 14.891C2.78398 14.4986 3.11492 14.1776 3.12742 14.1776C3.13996 14.1776 3.28043 14.3293 3.43961 14.5147ZM17.608 14.891L18.3207 15.6045L17.3928 15.9127C16.6323 16.1654 16.443 16.2428 16.3439 16.3418C16.2449 16.4409 16.1675 16.6302 15.9148 17.3907L15.6066 18.3187L14.7387 17.4514L13.8707 16.5841L14.175 16.4216C15.0095 15.9757 15.9347 15.2379 16.5452 14.5315C16.7134 14.3369 16.8611 14.1776 16.8732 14.1776C16.8854 14.1776 17.216 14.4986 17.608 14.891Z" fill="white"/>
</svg>
