<svg width="18" height="22" viewBox="0 0 18 22" fill="none" xmlns="http://www.w3.org/2000/svg">
<path fill-rule="evenodd" clip-rule="evenodd" d="M8.74873 0.0280428C8.69142 0.0479641 6.78785 0.836024 4.51857 1.77925C1.2896 3.1214 0.363256 3.52266 0.257648 3.62497C-0.0182501 3.89233 -0.0117486 3.80926 0.00854783 6.8076C0.027469 9.60634 0.0425558 9.88619 0.227308 10.8671C0.753348 13.6601 2.097 16.2124 4.09138 18.207C5.29096 19.4067 6.62127 20.3275 8.22777 21.07C8.67229 21.2755 8.75802 21.3011 8.99879 21.3011C9.23939 21.3011 9.32724 21.2747 9.78418 21.0658C14.4717 18.9226 17.5581 14.4994 17.9591 9.35023C17.9821 9.05462 18.0005 7.74182 18 6.43288C17.9991 4.20528 17.9942 4.04228 17.9219 3.88624C17.8795 3.79455 17.7899 3.66807 17.7228 3.60518C17.6387 3.5262 16.3128 2.95515 13.4353 1.75866C9.18079 -0.0105496 9.025 -0.0680632 8.74873 0.0280428ZM12.6872 3.25359L16.313 4.76278L16.3109 7.096C16.3089 9.30252 16.3037 9.46201 16.215 10.0335C16.1635 10.3659 16.0761 10.8348 16.0209 11.0754C15.1885 14.7025 12.7602 17.7612 9.42064 19.3893L8.99441 19.5971L8.44441 19.319C5.07003 17.6127 2.66405 14.4796 1.91579 10.8172C1.70282 9.77467 1.68532 9.48969 1.68494 7.05503L1.68457 4.76424L5.31042 3.25509C7.30464 2.42507 8.96441 1.74561 8.99879 1.7452C9.03317 1.74478 10.6929 2.42356 12.6872 3.25359ZM11.9161 7.39061C11.8249 7.42987 11.0798 8.14287 9.9268 9.29431L8.08332 11.1353L7.15531 10.2154C6.40176 9.46847 6.19017 9.28164 6.02967 9.22141C5.39765 8.98427 4.77771 9.57391 4.95584 10.2427C5.00001 10.4085 5.14667 10.5712 6.26244 11.6926C6.95368 12.3873 7.58487 12.9966 7.66506 13.0464C7.85189 13.1627 8.24399 13.1719 8.45833 13.065C8.5393 13.0247 9.59155 12.0026 10.7966 10.7937C12.8204 8.76351 12.9917 8.58068 13.0404 8.3993C13.2249 7.71097 12.5593 7.11375 11.9161 7.39061Z" fill="white"/>
</svg>
