<?xml version="1.0" encoding="utf-8"?><svg viewBox="0 0 44 44" xmlns="http://www.w3.org/2000/svg" xmlns:xlink="http://www.w3.org/1999/xlink"><style>:root>svg{display:none}:root>svg:target{display:block}</style><svg viewBox="0 0 8 14" id="angle-right" xmlns="http://www.w3.org/2000/svg"><path d="M1 1l6 6-6 6" stroke="currentColor" stroke-width="2" stroke-linecap="round" stroke-linejoin="round"/></svg><svg viewBox="0 0 21 9" id="arrow-right" xmlns="http://www.w3.org/2000/svg"><path d="M20.354 4.854a.5.5 0 000-.708L17.172.964a.5.5 0 10-.707.708L19.293 4.5l-2.828 2.828a.5.5 0 10.707.708l3.182-3.182zM0 5h20V4H0v1z"/></svg><svg viewBox="0 0 32 32" id="baseline-equalizer" xmlns="http://www.w3.org/2000/svg"><path d="M14 24h4V8h-4v16zm-6 0h4v-8H8v8zm12-11v11h4V13h-4z"/></svg><svg viewBox="0 0 40 40" id="bear" xmlns="http://www.w3.org/2000/svg"><path d="M36 10.244A5.25 5.25 0 0030.756 5a5.21 5.21 0 00-4.64 2.802 15.33 15.33 0 00-5.953-1.2c-2.223 0-4.331.47-6.227 1.306A5.25 5.25 0 009.244 5 5.25 5.25 0 004 10.245a5.23 5.23 0 002.668 4.566 13.554 13.554 0 00-1.392 5.982c0 7.825 6.678 14.191 14.887 14.191 7.037 0 13.17-4.762 14.582-11.323a.886.886 0 10-1.733-.373c-.547 2.543-1.911 4.775-3.797 6.476-.887-3.812-4.713-6.663-9.215-6.663-4.408 0-8.165 2.73-9.155 6.42-2.344-2.245-3.795-5.329-3.795-8.728 0-6.848 5.883-12.419 13.114-12.419 6.792 0 12.534 5.016 13.072 11.42a.887.887 0 001.767-.149 13.47 13.47 0 00-1.425-4.982A5.215 5.215 0 0036 10.244zm-16 14.63c4.003 0 7.352 2.687 7.627 6.117a13.594 13.594 0 01-7.464 2.22c-2.902 0-5.587-.899-7.763-2.417.386-3.335 3.672-5.92 7.6-5.92zM7.55 13.268a3.457 3.457 0 01-1.777-3.024 3.475 3.475 0 013.472-3.471c1.34 0 2.537.775 3.111 1.944a14.674 14.674 0 00-4.805 4.551zm20.162-4.68a3.445 3.445 0 013.044-1.815 3.475 3.475 0 013.472 3.472 3.448 3.448 0 01-1.556 2.887 14.82 14.82 0 00-4.96-4.545z"/><path d="M14.73 18.374a.887.887 0 000 1.773 2.699 2.699 0 002.696-2.696 2.699 2.699 0 00-2.696-2.696 2.699 2.699 0 00-2.696 2.696.887.887 0 001.773 0c0-.509.415-.923.923-.923.51 0 .923.414.923.923a.925.925 0 01-.923.923zM25.27 18.374a.887.887 0 000 1.773 2.699 2.699 0 002.696-2.696 2.699 2.699 0 00-2.696-2.696 2.699 2.699 0 00-2.696 2.696.887.887 0 001.773 0c0-.509.414-.923.923-.923a.924.924 0 010 1.846zM22.549 28.308a.887.887 0 00-.887-.886H18.34a.887.887 0 000 1.773h3.323c.49 0 .887-.397.887-.887zM21.551 30.58a.887.887 0 00-.886-.887h-1.33a.887.887 0 000 1.773h1.33c.49 0 .886-.397.886-.887z"/></svg><svg viewBox="0 0 36 36" id="book" xmlns="http://www.w3.org/2000/svg"><mask id="aea" maskUnits="userSpaceOnUse" x="0" y="0" width="36" height="36"><path d="M0 0h36v36H0z"/><path d="M33.625 11.125V7.75h-2.25v-.563A1.69 1.69 0 0029.687 5.5c-.198 0-.385.04-.562.104V3.812A2.816 2.816 0 0026.312 1 2.816 2.816 0 0023.5 3.813V7.75h-1.688A2.816 2.816 0 0019 10.563v.562h-1.125v-.563a2.816 2.816 0 00-2.813-2.812H3.25v3.375H1v22.5h14.682a2.817 2.817 0 002.755 2.25 2.817 2.817 0 002.756-2.25h14.682v-22.5h-2.25zm-7.498 12.237L24.82 19h2.988l-1.31 4.362c-.049.165-.32.165-.37 0zM28 17.875h-3.375V7.75H28v10.125zm-1.688-15.75c.93 0 1.688.757 1.688 1.688v2.812h-3.375V3.812c0-.93.757-1.687 1.688-1.687zm-6.187 8.438c0-.93.757-1.688 1.688-1.688H23.5v9.563l1.495 5.062h-2.62v1.125h9V23.5h-3.744l1.494-4.98V7.188a.563.563 0 011.125 0v7.875h1.125V8.875H32.5V30.25H20.125V28c.62 0 1.125-.505 1.125-1.125V25.75c0-.62-.505-1.125-1.125-1.125V23.5c.62 0 1.125-.505 1.125-1.125V21.25c0-.62-.505-1.125-1.125-1.125V19c.62 0 1.125-.505 1.125-1.125V16.75c0-.62-.505-1.125-1.125-1.125V14.5c.62 0 1.125-.505 1.125-1.125V12.25c0-.62-.505-1.125-1.125-1.125v-.563zM16.75 26.875V25.75h3.375v1.125H16.75zm3.376-13.5H16.75V12.25h3.375v1.125zM19 14.5v1.125h-1.125V14.5H19zm1.125 2.25v1.125H16.75V16.75h3.375zM19 19v1.125h-1.125V19H19zm1.125 2.25v1.125H16.75V21.25h3.375zM19 23.5v1.125h-1.125V23.5H19zM4.375 8.875h10.688c.93 0 1.687.757 1.687 1.688v.562c-.62 0-1.125.505-1.125 1.125v1.125c0 .62.505 1.125 1.125 1.125v1.125c-.62 0-1.125.505-1.125 1.125v1.125c0 .62.505 1.125 1.125 1.125v1.125c-.62 0-1.125.505-1.125 1.125v1.125c0 .62.505 1.125 1.125 1.125v1.125c-.62 0-1.125.505-1.125 1.125v1.125c0 .62.505 1.125 1.125 1.125v2.25H4.375V8.875zM34.75 32.5H20.125v.563a1.69 1.69 0 01-1.688 1.687 1.69 1.69 0 01-1.687-1.688V32.5H2.125V12.25H3.25v19.125h14.625V28H19v3.375h14.625V12.25h1.125V32.5z"/><path d="M31.375 25.75h-9v1.125h9V25.75zM5.5 15.625h9V10h-9v5.625zm1.125-4.5h6.75V14.5h-6.75v-3.375zM13.375 19H5.5v1.125h7.875V19zM14.5 21.25H8.875v1.125H14.5V21.25zM7.75 21.25H5.5v1.125h2.25V21.25zM14.5 23.5h-1.125v1.125H14.5V23.5zM12.25 23.5H5.5v1.125h6.75V23.5zM11.125 25.75H5.5v1.125h5.625V25.75zM14.5 16.75h-9v1.125h9V16.75z"/></mask><path d="M33.625 11.125V7.75h-2.25v-.563A1.69 1.69 0 0029.687 5.5c-.198 0-.385.04-.562.104V3.812A2.816 2.816 0 0026.312 1 2.816 2.816 0 0023.5 3.813V7.75h-1.688A2.816 2.816 0 0019 10.563v.562h-1.125v-.563a2.816 2.816 0 00-2.813-2.812H3.25v3.375H1v22.5h14.682a2.817 2.817 0 002.755 2.25 2.817 2.817 0 002.756-2.25h14.682v-22.5h-2.25zm-7.498 12.237L24.82 19h2.988l-1.31 4.362c-.049.165-.32.165-.37 0zM28 17.875h-3.375V7.75H28v10.125zm-1.688-15.75c.93 0 1.688.757 1.688 1.688v2.812h-3.375V3.812c0-.93.757-1.687 1.688-1.687zm-6.187 8.438c0-.93.757-1.688 1.688-1.688H23.5v9.563l1.495 5.062h-2.62v1.125h9V23.5h-3.744l1.494-4.98V7.188a.563.563 0 011.125 0v7.875h1.125V8.875H32.5V30.25H20.125V28c.62 0 1.125-.505 1.125-1.125V25.75c0-.62-.505-1.125-1.125-1.125V23.5c.62 0 1.125-.505 1.125-1.125V21.25c0-.62-.505-1.125-1.125-1.125V19c.62 0 1.125-.505 1.125-1.125V16.75c0-.62-.505-1.125-1.125-1.125V14.5c.62 0 1.125-.505 1.125-1.125V12.25c0-.62-.505-1.125-1.125-1.125v-.563zM16.75 26.875V25.75h3.375v1.125H16.75zm3.376-13.5H16.75V12.25h3.375v1.125zM19 14.5v1.125h-1.125V14.5H19zm1.125 2.25v1.125H16.75V16.75h3.375zM19 19v1.125h-1.125V19H19zm1.125 2.25v1.125H16.75V21.25h3.375zM19 23.5v1.125h-1.125V23.5H19zM4.375 8.875h10.688c.93 0 1.687.757 1.687 1.688v.562c-.62 0-1.125.505-1.125 1.125v1.125c0 .62.505 1.125 1.125 1.125v1.125c-.62 0-1.125.505-1.125 1.125v1.125c0 .62.505 1.125 1.125 1.125v1.125c-.62 0-1.125.505-1.125 1.125v1.125c0 .62.505 1.125 1.125 1.125v1.125c-.62 0-1.125.505-1.125 1.125v1.125c0 .62.505 1.125 1.125 1.125v2.25H4.375V8.875zM34.75 32.5H20.125v.563a1.69 1.69 0 01-1.688 1.687 1.69 1.69 0 01-1.687-1.688V32.5H2.125V12.25H3.25v19.125h14.625V28H19v3.375h14.625V12.25h1.125V32.5z"/><path d="M31.375 25.75h-9v1.125h9V25.75zM5.5 15.625h9V10h-9v5.625zm1.125-4.5h6.75V14.5h-6.75v-3.375zM13.375 19H5.5v1.125h7.875V19zM14.5 21.25H8.875v1.125H14.5V21.25zM7.75 21.25H5.5v1.125h2.25V21.25zM14.5 23.5h-1.125v1.125H14.5V23.5zM12.25 23.5H5.5v1.125h6.75V23.5zM11.125 25.75H5.5v1.125h5.625V25.75zM14.5 16.75h-9v1.125h9V16.75z"/><path d="M33.625 11.125V7.75h-2.25v-.563A1.69 1.69 0 0029.687 5.5c-.198 0-.385.04-.562.104V3.812A2.816 2.816 0 0026.312 1 2.816 2.816 0 0023.5 3.813V7.75h-1.688A2.816 2.816 0 0019 10.563v.562h-1.125v-.563a2.816 2.816 0 00-2.813-2.812H3.25v3.375H1v22.5h14.682a2.817 2.817 0 002.755 2.25 2.817 2.817 0 002.756-2.25h14.682v-22.5h-2.25zm-7.498 12.237L24.82 19h2.988l-1.31 4.362c-.049.165-.32.165-.37 0zM28 17.875h-3.375V7.75H28v10.125zm-1.688-15.75c.93 0 1.688.757 1.688 1.688v2.812h-3.375V3.812c0-.93.757-1.687 1.688-1.687zm-6.187 8.438c0-.93.757-1.688 1.688-1.688H23.5v9.563l1.495 5.062h-2.62v1.125h9V23.5h-3.744l1.494-4.98V7.188a.563.563 0 011.125 0v7.875h1.125V8.875H32.5V30.25H20.125V28c.62 0 1.125-.505 1.125-1.125V25.75c0-.62-.505-1.125-1.125-1.125V23.5c.62 0 1.125-.505 1.125-1.125V21.25c0-.62-.505-1.125-1.125-1.125V19c.62 0 1.125-.505 1.125-1.125V16.75c0-.62-.505-1.125-1.125-1.125V14.5c.62 0 1.125-.505 1.125-1.125V12.25c0-.62-.505-1.125-1.125-1.125v-.563zM16.75 26.875V25.75h3.375v1.125H16.75zm3.376-13.5H16.75V12.25h3.375v1.125zM19 14.5v1.125h-1.125V14.5H19zm1.125 2.25v1.125H16.75V16.75h3.375zM19 19v1.125h-1.125V19H19zm1.125 2.25v1.125H16.75V21.25h3.375zM19 23.5v1.125h-1.125V23.5H19zM4.375 8.875h10.688c.93 0 1.687.757 1.687 1.688v.562c-.62 0-1.125.505-1.125 1.125v1.125c0 .62.505 1.125 1.125 1.125v1.125c-.62 0-1.125.505-1.125 1.125v1.125c0 .62.505 1.125 1.125 1.125v1.125c-.62 0-1.125.505-1.125 1.125v1.125c0 .62.505 1.125 1.125 1.125v1.125c-.62 0-1.125.505-1.125 1.125v1.125c0 .62.505 1.125 1.125 1.125v2.25H4.375V8.875zM34.75 32.5H20.125v.563a1.69 1.69 0 01-1.688 1.687 1.69 1.69 0 01-1.687-1.688V32.5H2.125V12.25H3.25v19.125h14.625V28H19v3.375h14.625V12.25h1.125V32.5z" stroke="currentColor" stroke-width=".2" mask="url(#aea)"/><path d="M31.375 25.75h-9v1.125h9V25.75zM5.5 15.625h9V10h-9v5.625zm1.125-4.5h6.75V14.5h-6.75v-3.375zM13.375 19H5.5v1.125h7.875V19zM14.5 21.25H8.875v1.125H14.5V21.25zM7.75 21.25H5.5v1.125h2.25V21.25zM14.5 23.5h-1.125v1.125H14.5V23.5zM12.25 23.5H5.5v1.125h6.75V23.5zM11.125 25.75H5.5v1.125h5.625V25.75zM14.5 16.75h-9v1.125h9V16.75z" stroke="currentColor" stroke-width=".2" mask="url(#aea)"/></svg><svg viewBox="0 0 32 32" id="cart" xmlns="http://www.w3.org/2000/svg"><path d="M16 4a7.2 7.2 0 017.2 7.2v1.2H28v2.4h-1.4l-.909 10.9a1.2 1.2 0 01-1.195 1.1H7.504a1.2 1.2 0 01-1.195-1.1l-.91-10.9H4v-2.4h4.8v-1.2A7.2 7.2 0 0116 4zm8.191 10.8H7.808l.8 9.6h14.783l.8-9.6zM17.2 17.2V22h-2.4v-4.8h2.4zm-4.8 0V22H10v-4.8h2.4zm9.6 0V22h-2.4v-4.8H22zM16 6.4a4.8 4.8 0 00-4.794 4.56l-.006.24v1.2h9.6v-1.2a4.8 4.8 0 00-4.56-4.794L16 6.4z"/></svg><svg viewBox="0 0 24 24" id="catalog" xmlns="http://www.w3.org/2000/svg"><path d="M6.339 5.638a1.404 1.404 0 01-1.404 1.404h-.004a1.404 1.404 0 110-2.808h.004A1.404 1.404 0 016.34 5.638zm0 5.929a1.404 1.404 0 01-1.404 1.404h-.004a1.404 1.404 0 110-2.808h.004a1.404 1.404 0 011.404 1.404zm0 5.929A1.404 1.404 0 014.935 18.9h-.004a1.404 1.404 0 110-2.808h.004a1.404 1.404 0 011.404 1.404zm1.54-11.858a1.404 1.404 0 011.405-1.404h9.785a1.404 1.404 0 010 2.808H9.284a1.404 1.404 0 01-1.405-1.404zm12.594 5.929a1.404 1.404 0 01-1.404 1.404H9.284a1.404 1.404 0 110-2.808h9.785a1.404 1.404 0 011.404 1.404zm0 5.929A1.404 1.404 0 0119.07 18.9H9.284a1.404 1.404 0 110-2.808h9.785a1.404 1.404 0 011.404 1.404z"/></svg><svg viewBox="0 0 24 24" id="close" xmlns="http://www.w3.org/2000/svg"><path fill-rule="evenodd" clip-rule="evenodd" d="M12 13.414l-3.293 3.293-1.414-1.414L10.586 12 7.293 8.707l1.414-1.414L12 10.586l3.293-3.293 1.414 1.414L13.414 12l3.293 3.293-1.414 1.414L12 13.414z"/></svg><svg viewBox="0 0 20 20" id="document" xmlns="http://www.w3.org/2000/svg"><path fill-rule="evenodd" clip-rule="evenodd" d="M4.088 2.088L4 2.175v16.221l.088.088.087.087h11.65l.087-.087.088-.088V6.447l-2.223-2.223L11.553 2H4.175l-.087.088zm7.055 2.539v2.055l.087.087.088.088H15.43V18H4.57V2.571h6.572v2.056zm2.232.016l1.643 1.643h-3.304V4.643c0-.904.004-1.643.01-1.643.004 0 .748.74 1.651 1.643zM6.588 8.802A.288.288 0 006.5 9c0 .07.032.143.088.198l.087.088h6.65l.087-.088A.288.288 0 0013.5 9a.288.288 0 00-.088-.198l-.087-.088h-6.65l-.087.088zm0 1.714a.288.288 0 00-.088.198c0 .07.032.143.088.198l.087.088h6.65l.087-.088a.288.288 0 00.088-.198.288.288 0 00-.088-.198l-.087-.087h-6.65l-.087.087zm0 1.714a.288.288 0 00-.088.199c0 .07.032.142.088.198l.087.087h6.65l.087-.087a.288.288 0 00.088-.198.288.288 0 00-.088-.199l-.087-.087h-6.65l-.087.087zm0 1.715a.288.288 0 00-.088.198c0 .07.032.143.088.198l.087.088h6.65l.087-.088a.288.288 0 00.088-.198.288.288 0 00-.088-.198l-.087-.088h-6.65l-.087.088zm0 1.714a.288.288 0 00-.088.198c0 .07.032.143.088.198l.087.088h6.65l.087-.088a.288.288 0 00.088-.198.288.288 0 00-.088-.198l-.087-.088h-6.65l-.087.088z"/></svg><svg viewBox="0 0 40 40" id="eggs" xmlns="http://www.w3.org/2000/svg"><path d="M2.5 20.833c0 5.829 2.048 8.936 5.362 12.531.47.511 1.146.803 1.84.803h20.596c.694 0 1.37-.292 1.84-.803 3.314-3.595 5.362-6.702 5.362-12.53m-8.483 0c.088-.553.15-1.13.15-1.76 0-5.983-4.104-13.24-9.167-13.24s-9.167 7.257-9.167 13.24c0 .63.062 1.207.15 1.76m2.671-10.817c-1.441-.698-2.94-.977-4.372-.626-3.954.97-6.18 6.35-6.16 11.442m34.245-.117c.682-5.413-1.304-11.758-5.547-13-1.983-.58-4.15.058-6.138 1.393M.833 20.833h38.334" stroke="currentColor" stroke-width="1.5" stroke-miterlimit="10" stroke-linecap="round" stroke-linejoin="round"/></svg><svg viewBox="0 0 16 11" id="email" xmlns="http://www.w3.org/2000/svg"><path fill-rule="evenodd" clip-rule="evenodd" d="M.987.06A1.262 1.262 0 00.45.382c-.212.2-.343.43-.4.7-.068.319-.068 8.461 0 8.78.057.27.188.5.4.7.182.173.289.236.547.325.166.057.385.06 7.002.06s6.836-.003 7.002-.06c.258-.089.365-.152.547-.325.212-.2.343-.43.4-.7.068-.319.068-8.461 0-8.78-.057-.27-.188-.5-.4-.7a1.239 1.239 0 00-.547-.326C14.836 0 14.619-.002 7.987.001c-6.505.002-6.85.005-7 .058zm13.367.905c-.232.223-5.851 4.874-5.964 4.937-.132.073-.192.087-.39.087s-.258-.014-.39-.087C7.497 5.839 1.878 1.188 1.646.965 1.628.948 4.168.937 8 .937c3.832 0 6.372.011 6.354.028zM3.242 3.52A185.648 185.648 0 015.525 5.44c.008.02-4.53 3.068-4.568 3.068-.009 0-.016-1.548-.016-3.44a235 235 0 01.013-3.442c.007 0 1.036.853 2.288 1.895zM15.046 8.5c-.02.02-4.581-3.034-4.571-3.06.004-.013 1.034-.878 2.288-1.923l2.28-1.9.008 3.436c.004 1.889.002 3.44-.005 3.447zM6.75 6.44c.306.247.587.392.883.453.302.062.434.062.736 0 .296-.061.577-.206.883-.453l.342-.277.11-.088 2.674 1.787 2.675 1.787-.051.108a.535.535 0 01-.158.18l-.106.07H1.263l-.106-.07a.535.535 0 01-.158-.18L.95 9.65l2.674-1.787 2.675-1.787.11.088.341.277z"/></svg><svg viewBox="0 0 32 32" id="favorite" xmlns="http://www.w3.org/2000/svg"><path d="M16.001 7.168c2.819-2.53 7.175-2.447 9.89.274a7.201 7.201 0 01.283 9.883L16 27.515 5.825 17.325A7.2 7.2 0 0116.001 7.168zm8.191 1.97a4.797 4.797 0 00-6.588-.184l-1.602 1.437L14.4 8.955a4.799 4.799 0 00-6.593.185 4.799 4.799 0 00-.23 6.54L16 24.119l8.424-8.436a4.8 4.8 0 00-.232-6.545z"/></svg><svg viewBox="0 0 30 22" id="grid" xmlns="http://www.w3.org/2000/svg"><rect width="14" height="10" rx="2"/><rect y="12" width="14" height="10" rx="2"/><rect x="16" width="14" height="10" rx="2"/><rect x="16" y="12" width="14" height="10" rx="2"/></svg><svg viewBox="0 0 40 40" id="lightbulb" xmlns="http://www.w3.org/2000/svg"><path d="M8.59 11.8l.05.006-.05-.007c-.58 3.919.813 7.832 3.725 10.47 1.295 1.173 2.078 2.865 2.203 4.765h0c.002.036.009.071.016.103v5.989c0 .358.29.648.648.648h.553c.26 1.734 1.544 3.068 3.101 3.068h2.714c1.557 0 2.841-1.334 3.101-3.068h.553c.357 0 .648-.29.648-.648v-6.087-.007c0-1.763.8-3.468 2.258-4.8a11.745 11.745 0 003.818-8.65c0-3.518-1.558-6.82-4.276-9.06s-6.294-3.13-9.812-2.445c-4.736.922-8.54 4.92-9.25 9.722zm13.771 5.354h.866a2.167 2.167 0 002.164-2.165 2.167 2.167 0 00-2.164-2.164 2.167 2.167 0 00-2.165 2.165v0l.001.868h-1.738v-.869a2.167 2.167 0 00-2.165-2.164 2.167 2.167 0 00-2.164 2.164c0 1.194.97 2.165 2.164 2.165h.869v9.187h-2.286c-.263-1.988-1.153-3.76-2.559-5.033-2.59-2.346-3.828-5.83-3.312-9.32.63-4.268 4.01-7.82 8.215-8.64 3.138-.61 6.324.182 8.74 2.174l.032-.038-.032.038a10.411 10.411 0 013.805 8.06c0 2.918-1.237 5.722-3.396 7.694-1.539 1.407-2.457 3.184-2.64 5.065h-2.222l-.013-9.187zm-4.332-1.296h-.869a.87.87 0 010-1.738.87.87 0 01.869.87v.868zm4.329-.869s0 0 0 0a.87.87 0 011.738 0 .87.87 0 01-.87.869h-.867l-.001-.869zm-.41 12.648h2.608v4.841h-.494a.06.06 0 00-.014 0h-7.71a.063.063 0 00-.014 0h-.494v-4.84h6.118zm-2.623-1.296v-9.187h1.74l.014 9.187h-1.754zm2.225 9.205h-2.714c-.843 0-1.567-.743-1.787-1.772h6.288c-.22 1.029-.944 1.772-1.787 1.772z" stroke="currentColor" stroke-width=".1"/></svg><svg viewBox="0 0 30 22" id="list" xmlns="http://www.w3.org/2000/svg"><path d="M8 2h22M0 2h5M8 11h22M0 11h5M8 20h22M0 20h5" stroke="currentColor" stroke-width="4"/></svg><svg viewBox="0 0 12 17" id="location" xmlns="http://www.w3.org/2000/svg"><path fill-rule="evenodd" clip-rule="evenodd" d="M4.647.125C1.893.825.027 3.117 0 5.835-.013 7.137.566 8.718 1.94 11.13c1.395 2.45 3.545 5.555 3.908 5.646.38.094.534-.043 1.351-1.197 2.085-2.944 3.904-6.146 4.501-7.92C12.936 3.983 10.21.17 6.226.007 5.642-.018 5.025.03 4.647.125zm2.78 1.278c1.637.51 2.818 1.78 3.263 3.511.211.822.162 1.53-.174 2.502-.267.773-1.254 2.75-1.917 3.84-.78 1.282-2.521 3.876-2.6 3.876-.102 0-2.212-3.205-2.923-4.438C1.4 7.782.951 6.314 1.31 4.914 2.02 2.15 4.765.575 7.428 1.404zm-2.19 2.305c-1.708.618-2.168 2.787-.854 4.03 1.513 1.432 3.985.338 3.985-1.764 0-1.639-1.62-2.811-3.13-2.266zM6.71 5.021c.407.32.592.926.413 1.357-.43 1.037-1.816 1.034-2.248-.005-.182-.437-.072-.853.333-1.256a1.15 1.15 0 011.502-.096z"/></svg><svg viewBox="0 0 36 37" id="medical-mask" xmlns="http://www.w3.org/2000/svg"><g clip-path="url(#aqclip0_1_3910)"><mask id="aqa" maskUnits="userSpaceOnUse" x="-1" y="5.168" width="38" height="27"><path d="M-1 5.168h38v27H-1z"/><path d="M36 11.306c0-2.632-.95-3.9-1.75-4.5a3.026 3.026 0 00-2.623-.54c-1.688.481-2.748 2.532-3.19 3.575a3.104 3.104 0 00-.228-.076c-.928-.264-1.951-.664-3.037-1.086-2.25-.877-4.812-1.87-7.18-1.87-2.616 0-5.648 1.193-8.084 2.149a45.72 45.72 0 01-2.162.815c-.06.02-.121.048-.18.074-.442-1.038-1.508-3.094-3.193-3.58a3.023 3.023 0 00-2.624.54C.951 7.404 0 8.673 0 11.306c0 4.052 4.995 11.91 5.209 12.253.711 2.101 1.476 3.904 1.884 4.32 2.29 2.323 7.574 3.938 10.887 3.938 3.313 0 8.618-1.62 10.887-3.938.408-.416 1.207-2.264 1.944-4.379.48-.731 5.189-8.26 5.189-12.195zm-4.064-3.96a1.89 1.89 0 011.637.355c.844.632 1.302 1.912 1.302 3.605 0 1.969-1.39 5.083-2.708 7.594.152-.64.246-1.292.28-1.949.049-2.2-1.256-5.186-3.031-6.553.396-.987 1.322-2.709 2.52-3.052zm-30.811 3.96c0-1.687.461-2.973 1.302-3.605a1.887 1.887 0 011.637-.355c1.195.34 2.118 2.07 2.531 3.06-1.67 1.269-2.995 3.865-2.995 6.188.037.854.158 1.701.363 2.531-1.367-2.55-2.838-5.794-2.838-7.819zm26.95 15.8c-1.812 1.854-6.7 3.606-10.075 3.606-3.417 0-8.224-1.72-10.086-3.608-.562-.593-3.195-7.875-3.195-10.51 0-2.335 1.688-5.187 3.392-5.757.65-.217 1.406-.515 2.22-.844C12.655 9.079 15.59 7.93 18 7.93c2.157 0 4.5.912 6.773 1.795 1.125.43 2.157.843 3.138 1.125a2.316 2.316 0 01.596.28c1.485.946 2.875 3.671 2.813 5.803-.05 2.562-2.706 9.608-3.246 10.173z"/><path d="M24.086 21.333c-.042 0-4.218.765-6.086.765-1.867 0-6.044-.757-6.086-.765a.563.563 0 10-.203 1.108c.177.03 4.32.776 6.289.776 1.969 0 6.112-.75 6.289-.782a.563.563 0 00-.203-1.108v.006zM24.086 17.677c-.042 0-4.218.765-6.086.765-1.867 0-6.044-.757-6.086-.765a.563.563 0 10-.203 1.108c.177.03 4.32.776 6.289.776 1.969 0 6.112-.751 6.289-.782a.563.563 0 00-.203-1.108v.006zM24.086 14.02c-.042 0-4.218.765-6.086.765-1.867 0-6.044-.756-6.086-.765a.564.564 0 00-.203 1.109c.177.03 4.32.776 6.289.776 1.969 0 6.112-.751 6.289-.782a.563.563 0 00-.203-1.108v.005z"/></mask><path d="M36 11.306c0-2.632-.95-3.9-1.75-4.5a3.026 3.026 0 00-2.623-.54c-1.688.481-2.748 2.532-3.19 3.575a3.104 3.104 0 00-.228-.076c-.928-.264-1.951-.664-3.037-1.086-2.25-.877-4.812-1.87-7.18-1.87-2.616 0-5.648 1.193-8.084 2.149a45.72 45.72 0 01-2.162.815c-.06.02-.121.048-.18.074-.442-1.038-1.508-3.094-3.193-3.58a3.023 3.023 0 00-2.624.54C.951 7.404 0 8.673 0 11.306c0 4.052 4.995 11.91 5.209 12.253.711 2.101 1.476 3.904 1.884 4.32 2.29 2.323 7.574 3.938 10.887 3.938 3.313 0 8.618-1.62 10.887-3.938.408-.416 1.207-2.264 1.944-4.379.48-.731 5.189-8.26 5.189-12.195zm-4.064-3.96a1.89 1.89 0 011.637.355c.844.632 1.302 1.912 1.302 3.605 0 1.969-1.39 5.083-2.708 7.594.152-.64.246-1.292.28-1.949.049-2.2-1.256-5.186-3.031-6.553.396-.987 1.322-2.709 2.52-3.052zm-30.811 3.96c0-1.687.461-2.973 1.302-3.605a1.887 1.887 0 011.637-.355c1.195.34 2.118 2.07 2.531 3.06-1.67 1.269-2.995 3.865-2.995 6.188.037.854.158 1.701.363 2.531-1.367-2.55-2.838-5.794-2.838-7.819zm26.95 15.8c-1.812 1.854-6.7 3.606-10.075 3.606-3.417 0-8.224-1.72-10.086-3.608-.562-.593-3.195-7.875-3.195-10.51 0-2.335 1.688-5.187 3.392-5.757.65-.217 1.406-.515 2.22-.844C12.655 9.079 15.59 7.93 18 7.93c2.157 0 4.5.912 6.773 1.795 1.125.43 2.157.843 3.138 1.125a2.316 2.316 0 01.596.28c1.485.946 2.875 3.671 2.813 5.803-.05 2.562-2.706 9.608-3.246 10.173z"/><path d="M24.086 21.333c-.042 0-4.218.765-6.086.765-1.867 0-6.044-.757-6.086-.765a.563.563 0 10-.203 1.108c.177.03 4.32.776 6.289.776 1.969 0 6.112-.75 6.289-.782a.563.563 0 00-.203-1.108v.006zM24.086 17.677c-.042 0-4.218.765-6.086.765-1.867 0-6.044-.757-6.086-.765a.563.563 0 10-.203 1.108c.177.03 4.32.776 6.289.776 1.969 0 6.112-.751 6.289-.782a.563.563 0 00-.203-1.108v.006zM24.086 14.02c-.042 0-4.218.765-6.086.765-1.867 0-6.044-.756-6.086-.765a.564.564 0 00-.203 1.109c.177.03 4.32.776 6.289.776 1.969 0 6.112-.751 6.289-.782a.563.563 0 00-.203-1.108v.005z"/><path d="M34.25 6.806l-.122.158.003.002.12-.16zm-2.623-.54l-.051-.193h-.004l.055.193zm-3.19 3.575l-.07.188.18.066.074-.176-.184-.078zm-.228-.076l.055-.192-.055.192zm-3.037-1.086l-.073.187.073-.187zm-15.264.279l-.073-.186.073.186zm-2.162.815l-.064-.19.064.19zm-.18.074l-.184.078.078.184.184-.079-.078-.183zm-3.193-3.58l.056-.193-.005-.001-.05.193zm-2.624.54l.12.16.003-.003-.123-.158zM5.21 23.56l.19-.064-.008-.022-.012-.02-.17.106zm1.884 4.32l-.143.14.143-.14zm21.774 0l-.142-.14.142.14zm1.944-4.379l-.167-.11-.014.021-.008.024.189.065zm1.125-16.155l-.049-.194-.006.002.055.192zm1.637.355l-.125.156.005.004.12-.16zM32.167 18.9l-.195-.046.372.139-.177-.093zm.28-1.949l.2.01v-.006l-.2-.004zm-3.031-6.553l-.186-.075-.056.14.12.093.122-.158zM2.427 7.7l.12.16.005-.004-.125-.156zm1.637-.355l.055-.192-.006-.002-.049.194zm2.531 3.06l.121.16.123-.094-.06-.143-.184.077zM3.6 16.594h-.2v.008l.2-.008zm.363 2.531l-.176.095.37-.143-.194.048zm24.111 7.982l.143.14.002-.002-.145-.138zm-20.16-.003l-.145.138.003.003.142-.14zm.197-16.267l-.063-.19.063.19zm2.22-.844l-.074-.186h-.002l.075.186zm14.442-.267l-.073.186h.001l.072-.186zm3.138 1.125l.06-.191-.005-.002-.055.193zm.523.236l.116-.163-.005-.004-.006-.004-.105.17zm.073.045l.108-.169-.007-.004-.007-.004-.093.177zm2.813 5.802l-.2-.006v.002l.2.004zm-7.234 4.399v.2h.2v-.2h-.2zm-12.172 0l.039-.196h-.003l-.036.196zm-.203 1.108l-.036.197h.002l.034-.197zm12.578-.006l.034.197h.002l-.036-.197zm-.203-1.108l-.036-.197-.164.03v.167h.2zm0-3.65v.2h.2v-.2h-.2zm-12.172 0l.039-.197h-.003l-.036.197zm-.203 1.108l-.036.197h.002l.034-.197zm12.578-.006l.034.197h.002l-.036-.197zm-.203-1.108l-.036-.197-.164.03v.167h.2zm0-3.65v.2h.2v-.2h-.2zm-12.172 0l.039-.197h-.003l-.036.196zm-.203 1.107l-.036.197h.002l.034-.196zm12.578-.005l.034.197h.002l-.036-.197zm-.203-1.108l-.036-.197-.164.03v.167h.2zM36.2 11.306c0-2.687-.974-4.018-1.83-4.66l-.24.32c.743.557 1.67 1.763 1.67 4.34h.4zm-1.827-4.658a3.226 3.226 0 00-1.331-.614l-.08.392c.424.087.823.272 1.166.538l.245-.316zm-1.331-.614a3.226 3.226 0 00-1.466.039l.101.387c.42-.11.86-.121 1.284-.034l.08-.392zm-1.47.04c-.904.258-1.624.93-2.167 1.648-.545.722-.928 1.511-1.152 2.041l.368.156c.218-.514.586-1.27 1.103-1.956.52-.687 1.174-1.281 1.957-1.504l-.11-.385zm-3.065 3.58a3.272 3.272 0 00-.243-.081l-.11.384c.072.02.14.044.214.071l.139-.375zm-.243-.081c-.917-.262-1.931-.657-3.02-1.08l-.145.373c1.083.42 2.117.824 3.056 1.091l.11-.384zm-3.02-1.08c-2.24-.874-4.84-1.884-7.252-1.884v.4c2.323 0 4.848.976 7.107 1.857l.145-.373zM17.992 6.61c-2.662 0-5.732 1.21-8.157 2.163l.147.372c2.446-.96 5.44-2.135 8.01-2.135v-.4zM9.835 8.772c-.792.313-1.535.606-2.153.812l.127.38c.63-.211 1.384-.509 2.173-.82l-.147-.372zm-2.153.812c-.069.023-.142.056-.195.079l.157.367c.066-.028.116-.05.165-.067l-.127-.38zm.068.184c-.224-.526-.609-1.316-1.155-2.039-.544-.72-1.264-1.394-2.166-1.655l-.111.384c.783.226 1.437.823 1.958 1.512.519.687.888 1.444 1.106 1.955l.368-.157zM4.424 6.073a3.224 3.224 0 00-1.466-.04l.08.393a2.823 2.823 0 011.285.034l.101-.387zm-1.466-.04c-.485.1-.94.311-1.332.616l.246.315c.343-.267.742-.45 1.167-.538l-.081-.392zm-1.329.613C.774 7.288-.2 8.62-.2 11.306h.4c0-2.577.927-3.783 1.67-4.34l-.24-.32zM-.2 11.306c0 1.048.321 2.325.796 3.644.475 1.323 1.11 2.704 1.75 3.965 1.28 2.523 2.586 4.58 2.693 4.751l.34-.211c-.107-.172-1.405-2.216-2.676-4.721-.636-1.253-1.263-2.618-1.731-3.92C.502 13.51.2 12.285.2 11.307h-.4zm5.22 12.319A38.149 38.149 0 006.08 26.43c.167.386.326.722.47.989.14.262.276.475.4.6l.285-.28c-.08-.082-.194-.251-.333-.51a12.83 12.83 0 01-.455-.957 37.773 37.773 0 01-1.05-2.777l-.379.129zm1.93 4.396c1.177 1.193 3.104 2.19 5.138 2.888 2.037.7 4.208 1.109 5.892 1.109v-.4c-1.629 0-3.756-.398-5.762-1.087-2.01-.69-3.87-1.662-4.982-2.791l-.285.28zm11.03 3.997c1.684 0 3.86-.41 5.9-1.11 2.036-.7 3.964-1.696 5.13-2.888l-.285-.28c-1.103 1.127-2.963 2.098-4.975 2.789-2.008.69-4.14 1.089-5.77 1.089v.4zm11.03-3.998c.123-.125.26-.34.405-.607.148-.271.311-.613.484-1.005.345-.784.731-1.78 1.1-2.84l-.377-.133a39.453 39.453 0 01-1.09 2.812c-.17.387-.328.717-.468.976-.143.263-.259.435-.34.517l.286.28zm1.968-4.409a56.958 56.958 0 002.787-4.916c.62-1.237 1.228-2.578 1.68-3.86.452-1.277.755-2.511.755-3.529h-.4c0 .95-.285 2.133-.732 3.396-.445 1.26-1.044 2.585-1.66 3.813a56.606 56.606 0 01-2.764 4.876l.334.22zm1.007-16.07a1.69 1.69 0 01.769-.013l.084-.391a2.09 2.09 0 00-.95.015l.097.388zm.769-.013c.253.055.491.167.694.33l.25-.314a2.09 2.09 0 00-.86-.407l-.084.39zm.699.333c.768.576 1.222 1.776 1.222 3.445h.4c0-1.717-.463-3.076-1.382-3.765l-.24.32zm1.222 3.445c0 .947-.336 2.189-.846 3.522-.509 1.328-1.182 2.727-1.84 3.979l.355.186c.661-1.26 1.342-2.673 1.858-4.022.514-1.343.873-2.642.873-3.665h-.4zm-2.314 7.64c.156-.651.252-1.316.287-1.985l-.4-.02a10.638 10.638 0 01-.276 1.913l.39.093zm.287-1.99c.024-1.138-.3-2.464-.85-3.676-.552-1.212-1.34-2.331-2.26-3.04l-.244.316c.854.658 1.606 1.716 2.14 2.889.532 1.173.837 2.44.814 3.502l.4.008zM29.6 10.471a8.476 8.476 0 01.937-1.724c.422-.586.92-1.057 1.453-1.21l-.11-.384c-.665.19-1.23.752-1.668 1.36a8.872 8.872 0 00-.983 1.81l.372.148zm-28.276.834c0-1.663.456-2.869 1.222-3.446l-.24-.32C1.39 8.23.925 9.596.925 11.307h.4zm1.227-3.449c.203-.162.44-.275.694-.33l-.084-.39a2.087 2.087 0 00-.86.407l.25.313zm.694-.33c.254-.055.517-.05.77.013l.097-.388a2.087 2.087 0 00-.951-.016l.084.391zm.763.012c.531.15 1.027.622 1.452 1.21.42.583.747 1.248.95 1.734l.369-.154a9.427 9.427 0 00-.995-1.813c-.439-.61-1.002-1.173-1.666-1.362l-.11.385zm2.465 2.708C4.754 11.554 3.4 14.209 3.4 16.594h.4c0-2.262 1.296-4.798 2.916-6.028l-.242-.319zM3.4 16.602c.038.867.161 1.728.369 2.57l.388-.095a12.712 12.712 0 01-.357-2.492l-.4.017zm.74 2.429c-.682-1.272-1.388-2.713-1.922-4.085-.537-1.378-.893-2.666-.893-3.64h-.4c0 1.052.38 2.398.92 3.785.543 1.393 1.256 2.85 1.942 4.129l.352-.19zm23.791 7.936c-.874.894-2.514 1.783-4.375 2.45-1.856.664-3.898 1.095-5.556 1.095v.4c1.717 0 3.806-.444 5.691-1.119 1.88-.673 3.59-1.587 4.526-2.546l-.286-.28zM18 30.513c-1.68 0-3.712-.424-5.559-1.085-1.85-.663-3.484-1.552-4.384-2.464l-.285.28c.962.976 2.662 1.89 4.535 2.56 1.876.672 3.955 1.109 5.693 1.109v-.4zm-9.94-3.547a.908.908 0 01-.101-.15 4.795 4.795 0 01-.163-.313c-.123-.255-.27-.594-.433-.996a48.713 48.713 0 01-1.067-2.955 44.521 44.521 0 01-.962-3.334c-.255-1.06-.415-1.99-.415-2.624h-.4c0 .684.17 1.652.426 2.717a44.9 44.9 0 00.97 3.366 49.147 49.147 0 001.077 2.98c.164.406.315.754.443 1.02.065.133.124.248.178.34.051.09.104.17.156.225l.29-.276zM4.92 16.595c0-1.124.407-2.386 1.028-3.439.625-1.058 1.441-1.865 2.227-2.129l-.127-.379c-.919.308-1.799 1.212-2.444 2.305-.649 1.1-1.085 2.431-1.085 3.642h.4zm3.254-5.568a39.771 39.771 0 002.231-.848l-.15-.37c-.813.329-1.564.624-2.207.839l.126.38zm2.23-.847C12.74 9.261 15.636 8.131 18 8.131v-.4c-2.456 0-5.428 1.166-7.743 2.076l.146.372zM18 8.131c2.112 0 4.417.894 6.7 1.781l.145-.373C22.583 8.66 20.202 7.731 18 7.731v.4zm6.701 1.781c1.12.429 2.163.847 3.155 1.13l.11-.384c-.97-.278-1.992-.687-3.122-1.12l-.143.374zm3.151 1.13c.168.052.328.124.478.216l.209-.342a2.52 2.52 0 00-.569-.256l-.118.382zm.466.208c.031.022.063.041.096.059l.187-.354a.443.443 0 01-.05-.03l-.233.325zm.082.05c.7.446 1.398 1.328 1.914 2.376.516 1.046.836 2.228.806 3.252l.4.012c.032-1.107-.312-2.354-.847-3.44-.534-1.084-1.273-2.037-2.058-2.537l-.215.338zm2.72 5.63c-.012.616-.182 1.518-.446 2.545a44.261 44.261 0 01-.982 3.23 48.689 48.689 0 01-1.074 2.857c-.162.388-.309.715-.43.962a4.838 4.838 0 01-.161.302.903.903 0 01-.097.143l.289.276c.05-.053.102-.13.152-.216.053-.089.112-.2.175-.328.127-.257.277-.593.44-.985.328-.784.714-1.802 1.084-2.882.37-1.08.725-2.223.991-3.26.265-1.031.446-1.97.459-2.636l-.4-.008zm-7.034 4.203l-.024.001-.008.001-.015.002-.04.007-.144.025-.508.086c-.426.072-1.01.167-1.649.262-1.284.192-2.781.38-3.698.38v.4c.95 0 2.476-.193 3.757-.384a91 91 0 002.166-.35l.142-.024a3.59 3.59 0 01.037-.006l.007-.002c.008 0-.006.002-.023.002v-.4zM18 21.898c-.917 0-2.414-.187-3.698-.377a83.965 83.965 0 01-2.298-.375l-.038-.007a.298.298 0 01-.013-.002l-.079.392c.026.005 1.084.197 2.37.387 1.28.19 2.805.382 3.756.382v-.4zm-6.05-.762a.763.763 0 00-.571.123l.227.33a.363.363 0 01.272-.06l.072-.393zm-.571.123a.763.763 0 00-.317.49l.393.073a.363.363 0 01.151-.234l-.227-.329zm-.317.49c-.037.2.008.405.123.572l.329-.228a.363.363 0 01-.059-.271l-.393-.072zm.123.572c.115.166.291.28.49.317l.072-.394a.363.363 0 01-.233-.15l-.33.227zm.492.317c.168.03 4.332.78 6.323.78v-.4c-1.947 0-6.068-.742-6.254-.774l-.07.394zm6.323.78c1.99 0 6.156-.756 6.323-.786l-.069-.394c-.187.033-4.307.78-6.254.78v.4zm6.325-.786c.199-.036.375-.15.49-.317l-.329-.227a.363.363 0 01-.233.15l.072.394zm.49-.317a.763.763 0 00.123-.57l-.393.071a.363.363 0 01-.059.272l.33.227zm.123-.57a.763.763 0 00-.317-.492l-.227.33c.08.054.134.138.15.233l.394-.072zm-.317-.492a.763.763 0 00-.57-.122l.071.393a.363.363 0 01.272.058l.227-.329zm-.735.074v.006h.4v-.006h-.4zm.2-3.85a.197.197 0 00-.024.001l-.008.001-.015.002a24.03 24.03 0 00-.184.031l-.508.087a91.01 91.01 0 01-1.649.262c-1.284.192-2.781.38-3.698.38v.4c.95 0 2.476-.193 3.757-.384a92.003 92.003 0 001.656-.264l.51-.086.142-.025.037-.006a.164.164 0 01.007 0c.008-.002-.006 0-.023 0v-.4zM18 18.242c-.917 0-2.414-.187-3.698-.378a84.061 84.061 0 01-2.298-.374l-.038-.007a.331.331 0 00-.013-.003l-.079.393c.026.005 1.084.197 2.37.387 1.28.19 2.805.382 3.756.382v-.4zm-6.05-.762a.764.764 0 00-.571.123l.227.329a.364.364 0 01.272-.059l.072-.393zm-.571.123a.763.763 0 00-.317.49l.393.072a.363.363 0 01.151-.233l-.227-.33zm-.317.49c-.037.2.008.405.123.572l.329-.228a.363.363 0 01-.059-.272l-.393-.072zm.123.572c.115.166.291.28.49.317l.072-.394a.363.363 0 01-.233-.15l-.33.227zm.492.317c.168.03 4.332.779 6.323.779v-.4c-1.947 0-6.068-.74-6.254-.773l-.07.394zM18 19.76c1.99 0 6.156-.756 6.323-.785l-.069-.394c-.187.033-4.307.779-6.254.779v.4zm6.325-.785c.199-.037.375-.15.49-.317l-.329-.227a.363.363 0 01-.233.15l.072.394zm.49-.317a.763.763 0 00.123-.571l-.393.072a.363.363 0 01-.059.271l.33.228zm.123-.571a.763.763 0 00-.317-.49l-.227.328c.08.055.134.139.15.234l.394-.072zm-.317-.49a.763.763 0 00-.57-.124l.071.394a.363.363 0 01.272.058l.227-.329zm-.735.073v.006h.4v-.006h-.4zm.2-3.85h-.024a.467.467 0 00-.023.004l-.04.007-.144.024-.508.087a90.13 90.13 0 01-1.649.262c-1.284.191-2.781.38-3.698.38v.4c.95 0 2.476-.193 3.757-.384a91 91 0 002.166-.35l.142-.025a3.59 3.59 0 01.037-.006l.007-.001-.023.001v-.4zM18 14.584c-.917 0-2.414-.186-3.698-.377a83.965 83.965 0 01-2.298-.374l-.038-.008a.298.298 0 01-.013-.002l-.079.393c.026.005 1.084.196 2.37.387 1.28.19 2.805.381 3.756.381v-.4zm-6.05-.761a.763.763 0 00-.571.123l.227.329a.363.363 0 01.272-.059l.072-.393zm-.571.123a.763.763 0 00-.317.49l.393.072a.363.363 0 01.151-.233l-.227-.33zm-.317.49c-.037.2.008.405.123.571l.329-.227a.363.363 0 01-.059-.272l-.393-.072zm.123.571c.115.167.291.28.49.317l.072-.393a.363.363 0 01-.233-.151l-.33.227zm.492.318c.168.029 4.332.779 6.323.779v-.4c-1.947 0-6.068-.741-6.254-.774l-.07.395zm6.323.779c1.99 0 6.156-.756 6.323-.785l-.069-.394c-.187.033-4.307.779-6.254.779v.4zm6.325-.785a.763.763 0 00.277-.11l-.217-.336a.364.364 0 01-.132.052l.072.394zm.277-.11a.763.763 0 00.213-.207l-.329-.228a.364.364 0 01-.101.099l.217.336zm.213-.207a.764.764 0 00.119-.274l-.391-.084a.362.362 0 01-.057.13l.33.228zm.119-.274a.765.765 0 00.004-.297l-.393.072a.363.363 0 01-.002.141l.39.084zm.004-.297a.763.763 0 00-.11-.277l-.335.217c.026.04.043.085.052.132l.393-.072zm-.11-.277a.763.763 0 00-.207-.214l-.227.329c.04.027.073.062.099.102l.336-.217zm-.207-.214a.764.764 0 00-.273-.118l-.084.39c.047.01.09.03.13.057l.227-.33zm-.273-.118a.763.763 0 00-.298-.005l.072.393a.361.361 0 01.142.003l.084-.391zm-.462.192v.005h.4v-.005h-.4z" mask="url(#aqa)"/></g><defs><clipPath id="aqclip0_1_3910"><path transform="translate(0 .999)" d="M0 0h36v36H0z"/></clipPath></defs></svg><svg viewBox="0 0 44 44" id="package" xmlns="http://www.w3.org/2000/svg"><g clip-path="url(#arclip0_1_3970)"><mask id="ara" maskUnits="userSpaceOnUse" x=".802" y="1.914" width="44" height="35"><path d="M.802 1.914h44v35h-44z"/><path d="M5.13 35.718H3.569v.86h1.563v-.86zM12.31 15.786h-.86v1.175h.86v-1.175zM11.45 35.718H6.267v.86h26.358v-.86H12.31V18.031h-.86v17.687z"/><path d="M37.974 10.934H16.838l-1.703-4.978a4.498 4.498 0 00-4.256-3.042H6.266a4.468 4.468 0 00-4.464 4.464 4.468 4.468 0 004.464 4.463c1.99 0 3.68-1.31 4.254-3.112l.93 2.707v3.272h.86v-2.332l24.17 23.342h-2.677v.86h10.395v-.86h-6.224V10.934zm-21.65.86l20.79 20.229v3.113l-24.17-23.342h3.38zm20.79 19.03l-19.558-19.03h19.559v19.03zM10.88 3.774c1.556 0 2.939.989 3.443 2.46l1.608 4.7h-3.743l-1.582-4.6a4.474 4.474 0 00-1.71-2.56h1.984zm-4.613 7.208a3.608 3.608 0 01-3.604-3.604 3.608 3.608 0 013.604-3.604A3.608 3.608 0 019.87 7.378a3.608 3.608 0 01-3.604 3.604z"/><path d="M6.266 5.77c-.886 0-1.607.722-1.607 1.607 0 .886.72 1.607 1.607 1.607.886 0 1.606-.72 1.606-1.607 0-.885-.72-1.606-1.606-1.606zm0 2.355a.748.748 0 11.001-1.496.748.748 0 01-.001 1.496zM36.257 19.975v-7.266H28.99v7.266h7.266zm-6.406-6.406h5.547v5.546H29.85V13.57z"/><path d="M34.382 14.493h-3.516v.86h3.516v-.86zM34.382 15.912h-3.516v.86h3.516v-.86zM35.827 20.919h-3.203v.86h3.203v-.86zM35.827 22.513h-3.203v.86h3.203v-.86zM25.624 28.206l-2.19-1.473-1.475 2.195.713.48.63-.937a3.863 3.863 0 01-.965 3.821 3.833 3.833 0 01-2.72 1.125c-.985 0-1.97-.375-2.72-1.125l-.607.608a4.69 4.69 0 003.327 1.376c1.205 0 2.41-.459 3.327-1.376a4.725 4.725 0 001.185-4.664l1.015.683.48-.713zM13.185 30.332l2.19 1.473 1.475-2.195-.713-.48-.63.938a3.862 3.862 0 01.966-3.822 3.85 3.85 0 015.439 0l.607-.608a4.711 4.711 0 00-6.654 0 4.726 4.726 0 00-1.185 4.664l-1.015-.683-.48.713z"/></mask><path d="M5.13 35.718H3.569v.86h1.563v-.86zM12.31 15.786h-.86v1.175h.86v-1.175zM11.45 35.718H6.267v.86h26.358v-.86H12.31V18.031h-.86v17.687z"/><path d="M37.974 10.934H16.838l-1.703-4.978a4.498 4.498 0 00-4.256-3.042H6.266a4.468 4.468 0 00-4.464 4.464 4.468 4.468 0 004.464 4.463c1.99 0 3.68-1.31 4.254-3.112l.93 2.707v3.272h.86v-2.332l24.17 23.342h-2.677v.86h10.395v-.86h-6.224V10.934zm-21.65.86l20.79 20.229v3.113l-24.17-23.342h3.38zm20.79 19.03l-19.558-19.03h19.559v19.03zM10.88 3.774c1.556 0 2.939.989 3.443 2.46l1.608 4.7h-3.743l-1.582-4.6a4.474 4.474 0 00-1.71-2.56h1.984zm-4.613 7.208a3.608 3.608 0 01-3.604-3.604 3.608 3.608 0 013.604-3.604A3.608 3.608 0 019.87 7.378a3.608 3.608 0 01-3.604 3.604z"/><path d="M6.266 5.77c-.886 0-1.607.722-1.607 1.607 0 .886.72 1.607 1.607 1.607.886 0 1.606-.72 1.606-1.607 0-.885-.72-1.606-1.606-1.606zm0 2.355a.748.748 0 11.001-1.496.748.748 0 01-.001 1.496zM36.257 19.975v-7.266H28.99v7.266h7.266zm-6.406-6.406h5.547v5.546H29.85V13.57z"/><path d="M34.382 14.493h-3.516v.86h3.516v-.86zM34.382 15.912h-3.516v.86h3.516v-.86zM35.827 20.919h-3.203v.86h3.203v-.86zM35.827 22.513h-3.203v.86h3.203v-.86zM25.624 28.206l-2.19-1.473-1.475 2.195.713.48.63-.937a3.863 3.863 0 01-.965 3.821 3.833 3.833 0 01-2.72 1.125c-.985 0-1.97-.375-2.72-1.125l-.607.608a4.69 4.69 0 003.327 1.376c1.205 0 2.41-.459 3.327-1.376a4.725 4.725 0 001.185-4.664l1.015.683.48-.713zM13.185 30.332l2.19 1.473 1.475-2.195-.713-.48-.63.938a3.862 3.862 0 01.966-3.822 3.85 3.85 0 015.439 0l.607-.608a4.711 4.711 0 00-6.654 0 4.726 4.726 0 00-1.185 4.664l-1.015-.683-.48.713z"/><path d="M5.13 35.718H3.569v.86h1.563v-.86zM12.31 15.786h-.86v1.175h.86v-1.175zM11.45 35.718H6.267v.86h26.358v-.86H12.31V18.031h-.86v17.687z" stroke="currentColor" stroke-width=".4" mask="url(#ara)"/><path d="M37.974 10.934H16.838l-1.703-4.978a4.498 4.498 0 00-4.256-3.042H6.266a4.468 4.468 0 00-4.464 4.464 4.468 4.468 0 004.464 4.463c1.99 0 3.68-1.31 4.254-3.112l.93 2.707v3.272h.86v-2.332l24.17 23.342h-2.677v.86h10.395v-.86h-6.224V10.934zm-21.65.86l20.79 20.229v3.113l-24.17-23.342h3.38zm20.79 19.03l-19.558-19.03h19.559v19.03zM10.88 3.774c1.556 0 2.939.989 3.443 2.46l1.608 4.7h-3.743l-1.582-4.6a4.474 4.474 0 00-1.71-2.56h1.984zm-4.613 7.208a3.608 3.608 0 01-3.604-3.604 3.608 3.608 0 013.604-3.604A3.608 3.608 0 019.87 7.378a3.608 3.608 0 01-3.604 3.604z" stroke="currentColor" stroke-width=".4" mask="url(#ara)"/><path d="M6.266 5.77c-.886 0-1.607.722-1.607 1.607 0 .886.72 1.607 1.607 1.607.886 0 1.606-.72 1.606-1.607 0-.885-.72-1.606-1.606-1.606zm0 2.355a.748.748 0 11.001-1.496.748.748 0 01-.001 1.496zM36.257 19.975v-7.266H28.99v7.266h7.266zm-6.406-6.406h5.547v5.546H29.85V13.57z" stroke="currentColor" stroke-width=".4" mask="url(#ara)"/><path d="M34.382 14.493h-3.516v.86h3.516v-.86zM34.382 15.912h-3.516v.86h3.516v-.86zM35.827 20.919h-3.203v.86h3.203v-.86zM35.827 22.513h-3.203v.86h3.203v-.86zM25.624 28.206l-2.19-1.473-1.475 2.195.713.48.63-.937a3.863 3.863 0 01-.965 3.821 3.833 3.833 0 01-2.72 1.125c-.985 0-1.97-.375-2.72-1.125l-.607.608a4.69 4.69 0 003.327 1.376c1.205 0 2.41-.459 3.327-1.376a4.725 4.725 0 001.185-4.664l1.015.683.48-.713zM13.185 30.332l2.19 1.473 1.475-2.195-.713-.48-.63.938a3.862 3.862 0 01.966-3.822 3.85 3.85 0 015.439 0l.607-.608a4.711 4.711 0 00-6.654 0 4.726 4.726 0 00-1.185 4.664l-1.015-.683-.48.713z" stroke="currentColor" stroke-width=".4" mask="url(#ara)"/></g><defs><clipPath id="arclip0_1_3970"><path d="M0 0h44v44H0z"/></clipPath></defs></svg><svg viewBox="0 0 12 18" id="phone" xmlns="http://www.w3.org/2000/svg"><path d="M9 .75H3A2.247 2.247 0 00.75 3v12A2.247 2.247 0 003 17.25h6A2.247 2.247 0 0011.25 15V3A2.247 2.247 0 009 .75zm-1.5 15h-3V15h3v.75zm2.438-2.25H2.061V3h7.876v10.5z"/></svg><svg viewBox="0 0 32 32" id="printer" xmlns="http://www.w3.org/2000/svg"><path d="M12.125 8h7.75a1.625 1.625 0 011.622 1.533l.003.092v1.374l.875.001A2.625 2.625 0 0125 13.625v6.75A1.625 1.625 0 0123.375 22H21.5v.875a1.625 1.625 0 01-1.625 1.625h-7.75a1.625 1.625 0 01-1.625-1.625V22H8.625A1.625 1.625 0 017 20.375v-6.75A2.625 2.625 0 019.625 11h.875V9.624a1.625 1.625 0 011.533-1.623L12.125 8zm7.75 10.25h-7.75a.375.375 0 00-.375.375v4.25c0 .207.168.375.375.375h7.75a.375.375 0 00.375-.375v-4.25a.375.375 0 00-.375-.375zm2.5-6H9.625a1.375 1.375 0 00-1.375 1.375v6.75c0 .207.168.375.375.375H10.5v-2.125A1.625 1.625 0 0112.125 17h7.75a1.625 1.625 0 011.625 1.625v2.125h1.875a.375.375 0 00.375-.375v-6.75a1.375 1.375 0 00-1.375-1.375zm-2.5-3h-7.75a.375.375 0 00-.371.324l-.004.051v1.374h8.5V9.625a.375.375 0 00-.324-.371l-.051-.004z"/></svg><svg viewBox="0 0 32 32" id="school" xmlns="http://www.w3.org/2000/svg"><g clip-path="url(#auclip0_1_3988)"><path d="M28.767.25h0l-2.134 4.267a.635.635 0 00-.066.283v24.533a2.77 2.77 0 002.766 2.767 2.77 2.77 0 002.767-2.767V4.916a.632.632 0 00-.114-.493L29.9.25h0a.622.622 0 00-.567-.326.622.622 0 00-.566.326zm.566 26.517c.35 0 .634-.284.634-.634v-19.2a.633.633 0 10-1.267 0v19.2c0 .35.283.634.633.634zm0-24.818l1.109 2.218h-1.109a.633.633 0 100 1.266h1.5v22.2h-1.5a.633.633 0 100 1.267h1.5v.433c0 .827-.673 1.5-1.5 1.5s-1.5-.673-1.5-1.5V4.95l1.5-3zM16.533 15.9H11.2a.633.633 0 100 1.267h5.333a.633.633 0 100-1.267zm-5.333-.867h3.2a.633.633 0 100-1.266h-3.2a.633.633 0 100 1.266zm7.9-3.2V19.1H8.633v-7.267H19.1zM7.367 11.2v8.533c0 .35.283.634.633.634h11.733c.35 0 .634-.284.634-.634V11.2a.633.633 0 00-.634-.633H8a.633.633 0 00-.633.633zm-6.2 18.133V5.027c.516.299 1.087.406 1.5.406h21.766v23.9c0 .797-.703 1.5-1.5 1.5H2.667c-.797 0-1.5-.703-1.5-1.5zm.966-28.166h22.934a.633.633 0 100-1.267H2.133A2.235 2.235 0 00-.1 2.133v27.2c0 1.5 1.266 2.767 2.767 2.767h20.266c1.5 0 2.767-1.266 2.767-2.767V4.8a.633.633 0 00-.633-.633H2.67a1.846 1.846 0 01-.852-.224c-.337-.194-.651-.56-.651-1.276v-.534c0-.533.433-.966.966-.966zm.534 28.8c.35 0 .633-.284.633-.634v-22.4a.633.633 0 10-1.267 0v22.4c0 .35.283.634.634.634zm21.966-27.3A.633.633 0 0024 2.033H2.667a.633.633 0 100 1.267H24c.35 0 .633-.284.633-.633z" stroke="currentColor" stroke-width=".2"/></g><defs><clipPath id="auclip0_1_3988"><path d="M0 0h32v32H0z"/></clipPath></defs></svg><svg viewBox="0 0 24 24" id="search" xmlns="http://www.w3.org/2000/svg"><path fill-rule="evenodd" clip-rule="evenodd" d="M10 18a8 8 0 116.32-3.094l5.387 5.387-1.414 1.414-5.387-5.387A7.965 7.965 0 0110 18zm6-8a6 6 0 11-12 0 6 6 0 0112 0z" opacity=".74"/></svg><svg viewBox="0 0 24 24" id="setting-lines" xmlns="http://www.w3.org/2000/svg"><path d="M6.274 5.35H2.588A.594.594 0 012 4.748c0-.331.263-.6.588-.6h3.686c.324 0 .588.269.588.6 0 .331-.264.6-.588.6z"/><path d="M8.38 7.497c-1.486 0-2.695-1.233-2.695-2.748C5.685 3.233 6.894 2 8.38 2c1.486 0 2.694 1.233 2.694 2.749 0 1.515-1.208 2.748-2.694 2.748zm0-4.297c-.838 0-1.519.695-1.519 1.549s.681 1.548 1.518 1.548 1.518-.694 1.518-1.548c0-.854-.68-1.549-1.518-1.549zM21.41 5.35h-8.79a.594.594 0 01-.589-.601c0-.331.263-.6.588-.6h8.791c.325 0 .589.269.589.6 0 .331-.264.6-.589.6zM16.275 14.749c-1.485 0-2.694-1.233-2.694-2.748 0-1.516 1.209-2.749 2.694-2.749 1.486 0 2.694 1.233 2.694 2.748 0 1.516-1.208 2.749-2.694 2.749zm0-4.297c-.837 0-1.518.695-1.518 1.549 0 .853.681 1.548 1.518 1.548s1.518-.695 1.518-1.548c0-.854-.68-1.549-1.518-1.549zM12.037 12.6H2.588A.594.594 0 012 12c0-.33.263-.6.588-.6h9.45c.324 0 .588.27.588.6 0 .332-.264.6-.589.6z"/><path d="M21.412 12.6h-3.027a.594.594 0 01-.589-.6c0-.33.264-.6.589-.6h3.027c.325 0 .588.27.588.6 0 .332-.263.6-.588.6zM7.722 22c-1.486 0-2.695-1.233-2.695-2.749s1.209-2.749 2.695-2.749c1.485 0 2.694 1.233 2.694 2.749S9.207 22 7.722 22zm0-4.297c-.837 0-1.518.694-1.518 1.548 0 .854.68 1.549 1.518 1.549.836 0 1.517-.695 1.517-1.549s-.68-1.548-1.517-1.548zM21.411 19.852h-9.449a.594.594 0 01-.588-.6c0-.332.263-.6.588-.6h9.45c.324 0 .588.268.588.6 0 .33-.264.6-.589.6z"/><path d="M5.616 19.852H2.588a.594.594 0 01-.588-.6c0-.332.263-.6.588-.6h3.028c.324 0 .588.268.588.6 0 .33-.264.6-.588.6z"/></svg><svg viewBox="0 0 32 32" id="share" xmlns="http://www.w3.org/2000/svg"><path fill-rule="evenodd" clip-rule="evenodd" d="M20.443 7.05c-.604.113-1.109.385-1.569.843-.356.356-.6.743-.733 1.162-.214.674-.212 1.093.006 1.99.015.065-.3.271-2.419 1.583-1.34.83-2.448 1.514-2.464 1.52-.015.006-.154-.095-.31-.225a3.44 3.44 0 00-1.216-.637c-.383-.102-1.072-.11-1.438-.015-.912.236-1.692.88-2.053 1.697-.19.427-.247.716-.247 1.237 0 .52.058.81.247 1.237.353.8 1.123 1.447 2 1.681a3.383 3.383 0 001.492.001c.403-.107.885-.36 1.216-.637.155-.13.294-.231.31-.225.015.006 1.124.69 2.463 1.52 2.118 1.312 2.434 1.518 2.418 1.583-.218.9-.219 1.344-.001 1.998.146.44.356.773.715 1.137.487.493 1.014.767 1.68.876 1.506.244 2.984-.74 3.377-2.247.166-.634.078-1.447-.22-2.05a2.992 2.992 0 00-2.733-1.681 2.91 2.91 0 00-2.019.793l-.193.175-1.33-.826a2163.143 2163.143 0 00-3.605-2.235 1.606 1.606 0 01.06-.233 3.118 3.118 0 000-1.734 1.606 1.606 0 01-.06-.233c.004-.004.518-.322 1.14-.707l2.464-1.527 1.331-.826.224.2a3.02 3.02 0 003.337.47 3.067 3.067 0 001.605-1.995c.106-.436.105-1.032 0-1.439-.404-1.545-1.921-2.52-3.475-2.23zm1.063 1.12c.988.29 1.578 1.287 1.346 2.272-.082.347-.25.644-.517.911a1.83 1.83 0 01-1.46.56 1.83 1.83 0 01-1.243-.568 1.915 1.915 0 01.084-2.75c.204-.183.446-.318.745-.415.257-.083.78-.088 1.045-.01zm-9.88 6.23c.547.197.986.641 1.179 1.194.116.332.115.891 0 1.223-.194.55-.636.999-1.176 1.191-.3.107-.79.13-1.095.05a1.894 1.894 0 01-1.44-1.85c0-.869.545-1.594 1.386-1.844.293-.088.85-.07 1.145.036zm9.797 6.14c.697.164 1.265.73 1.428 1.424a1.919 1.919 0 01-1.345 2.276c-.255.075-.759.075-1.012 0a1.94 1.94 0 01-1.342-1.342c-.074-.248-.075-.715-.003-.99a1.955 1.955 0 011.527-1.398 2.25 2.25 0 01.747.03z"/></svg><svg viewBox="0 0 44 44" id="sofa" xmlns="http://www.w3.org/2000/svg"><path d="M2.35 25.122v.2h.029v6.18c0 .847.688 1.536 1.535 1.536h.736v1.05c0 .555.451 1.006 1.005 1.006h.722c.554 0 1.005-.451 1.005-1.005v-1.051h29.374v1.05c0 .555.45 1.006 1.005 1.006h.721c.555 0 1.005-.451 1.005-1.005v-1.051h.737c.847 0 1.536-.689 1.536-1.536V19.304a3.184 3.184 0 00-3.13-3.18v-3.965a3.257 3.257 0 00-3.253-3.253H8.76a3.256 3.256 0 00-3.252 3.253v4.178a3.184 3.184 0 00-3.156 3.18v5.605zM6.527 12.36h0v-.2a2.236 2.236 0 012.233-2.234h26.618a2.237 2.237 0 012.235 2.234v3.964h-.288c-.944 0-1.711.768-1.711 1.712v2.085a25.098 25.098 0 00-9.143-3.509 25.396 25.396 0 00-8.804.017 25.078 25.078 0 00-9.306 3.654v-2.034c0-.944-.767-1.711-1.71-1.711h-.124v-3.978zm19.348 4.987v6.957h-7.61V17.36a24.362 24.362 0 017.61-.014zm9.939 7.983h4.928v6.173a.517.517 0 01-.516.517H3.915a.518.518 0 01-.518-.517v-6.18h32.216v.007h.2zm4.928-1.026h-4.11v-6.468c0-.382.311-.693.693-.693h1.255c1.192 0 2.162.97 2.162 2.162v5zm-13.848-6.775a24.075 24.075 0 018.72 3.606v3.17h-8.72v-6.776zM8.36 21.307a24.045 24.045 0 018.885-3.76v6.756H8.36v-2.996zm-4.99-1.79c0-1.192.97-2.162 2.162-2.162h1.117c.382 0 .693.311.693.693v6.256H3.37v-4.787zm2.993 13.576v.982H5.67v-.982h.694zm32.106 0v.982h-.695v-.982h.695z" stroke="currentColor" stroke-width=".4"/></svg><svg viewBox="0 0 40 40" id="syringue" xmlns="http://www.w3.org/2000/svg"><path d="M20.417 38.214a.744.744 0 01-.744-.744v-5.952a.744.744 0 111.488 0v5.952a.744.744 0 01-.744.744zM25.625 3.988H15.208a.744.744 0 110-1.488h10.417a.744.744 0 110 1.488zM18.185 15.893h-2.977a.744.744 0 110-1.488h2.977a.744.744 0 110 1.488zM18.185 18.869h-2.977a.744.744 0 110-1.488h2.977a.744.744 0 110 1.488zM18.185 21.845h-2.977a.744.744 0 110-1.488h2.977a.744.744 0 110 1.488zM30.09 11.428H10.743a.744.744 0 110-1.488h19.345a.744.744 0 110 1.489z"/><path d="M18.928 3.244H17.44v7.44h1.488v-7.44zM23.393 3.244h-1.488v7.44h1.488v-7.44zM20.417 32.262c-3.282 0-5.953-3.004-5.953-6.697v-14.88h1.489v14.88c0 2.872 2.002 5.209 4.464 5.209 2.462 0 4.464-2.337 4.464-5.209v-14.88h1.488v14.88c0 3.693-2.67 6.697-5.952 6.697z"/></svg><svg viewBox="0 0 32 32" id="user" xmlns="http://www.w3.org/2000/svg"><path d="M25.333 28.5H23v-2.333a3.5 3.5 0 00-3.5-3.5h-7a3.5 3.5 0 00-3.5 3.5V28.5H6.667v-2.333a5.833 5.833 0 015.833-5.834h7a5.833 5.833 0 015.833 5.834V28.5zM16 18a7.001 7.001 0 01-4.95-11.95A7 7 0 1116 18zm0-2.333a4.667 4.667 0 100-9.334 4.667 4.667 0 000 9.334z"/></svg><svg viewBox="0 0 44 44" id="washing-powder" xmlns="http://www.w3.org/2000/svg"><mask id="bba" maskUnits="userSpaceOnUse" x="3.4" y="3.4" width="37" height="37"><path d="M3.4 3.4h37v37h-37z"/><path fill-rule="evenodd" clip-rule="evenodd" d="M19.126 4.62c-2.155.548-3.813 1.479-5.652 3.173a24.917 24.917 0 01-1.934 1.585c-1.425 1.024-3.51 3.296-4.53 4.936-1.974 3.174-2.735 6.12-2.593 10.037.078 2.171.173 2.75.705 4.327.339 1 .84 2.208 1.113 2.682.805 1.396 2.322 3.21 3.456 4.135 1.003.817 1.074.844 1.414.537.197-.178.358-.377.358-.442 0-.064-.44-.46-.976-.88-1.254-.98-2.886-3.05-3.627-4.605-.958-2.008-1.366-3.91-1.374-6.41-.015-4.375 1.479-8.22 4.389-11.296l1.006-1.063-.403 1.15c-.484 1.385-.7 4.904-.388 6.357a12.96 12.96 0 001.762 4.264l.76 1.176V39.6h1.15l.002-7.809c.002-4.294.055-8.002.118-8.24.116-.43.12-.43 4.405-.43h4.288v-1.15l-3.976-.006-3.975-.006.626-.569.625-.569h6.54l1.085.706c.598.389 1.908 1.531 2.913 2.54 1.42 1.425 1.983 2.151 2.53 3.27 1.12 2.283 1.29 3.35 1.293 8.095l.003 4.168h1.149l-.003-4.072c-.004-4.381-.175-5.69-1.013-7.753-1.045-2.571-3.208-5.055-6.133-7.042l-1.664-1.13v-1.02c0-.778-.068-1.02-.287-1.02-.224 0-.288-.255-.288-1.15v-1.149h-5.556v1.15c0 .894-.064 1.15-.287 1.15-.221 0-.288.244-.288 1.053 0 .58-.074 1.054-.164 1.054-.359 0-1.982 1.625-2.356 2.358l-.397.779-.459-.754c-1.584-2.606-1.968-6.068-.997-8.994 1.21-3.641 4.354-6.541 8.013-7.39 3.652-.847 7.567.29 10.255 2.979 3.778 3.778 4.343 9.37 1.407 13.913-.73 1.13-.758 1.222-.436 1.457.189.138.415.251.502.251.266 0 1.645-2.269 2.07-3.402.66-1.767.814-2.872.713-5.11-.067-1.486-.219-2.466-.506-3.268l-.41-1.145.785.762c1.927 1.866 3.766 5.389 4.4 8.427.372 1.78.287 5.094-.176 6.859-.745 2.845-2.526 5.716-4.5 7.254l-.887.69.363.45.363.448 1.061-.907c1.98-1.692 3.442-3.92 4.365-6.65.533-1.577.627-2.156.706-4.327.141-3.916-.62-6.863-2.594-10.037-1.02-1.64-3.106-3.913-4.53-4.935a25.95 25.95 0 01-2.03-1.677C27.958 5.414 25.725 4.5 22.383 4.41c-1.444-.04-2.566.032-3.257.208zm1.771 2.882c-.343.15-.799.568-1.013.93-.394.668-1.077.934-2.29.89l-1.315-.05c-.72-.028-.911.053-1.389.587-.412.462-.554.814-.554 1.375 0 .489-.168 1.004-.476 1.457-.953 1.406-.994 2.458-.132 3.387.587.633.721.65 1.001.126.177-.33.143-.478-.184-.827-.22-.234-.4-.53-.4-.66 0-.462.78-1.753 1.243-2.056.452-.296.46-.332.177-.88-.267-.515-.266-.615.009-1.035.345-.527 1.08-.617 1.445-.177.323.39.697.362 1.454-.107.728-.45 1.197-.315 1.728.496.17.259.375.43.456.379.252-.155.36-1.129.165-1.491-.245-.459-.04-1.047.46-1.314.321-.173.537-.145 1.059.136.622.336.684.337 1.227.025 1.11-.637 1.88-.28 1.88.872 0 .4.074.448.576.374.347-.05.774.046 1.076.245.445.29.49.419.395 1.123-.058.438-.165.99-.237 1.23-.108.356.044.592.85 1.324.859.78.981.982.981 1.634 0 .615-.146.9-.847 1.649-.672.718-.808.974-.66 1.237.276.495.603.409 1.405-.37 1.695-1.647 1.662-3.72-.08-5.01-.485-.358-.555-.5-.395-.798.107-.2.194-.707.194-1.127 0-.918-.666-1.814-1.601-2.152-.343-.124-.767-.473-.94-.777-.502-.874-1.678-1.177-2.635-.677-.392.204-.588.206-1.054.007-.72-.307-.818-.306-1.579.025zm-.046 9.487v.575H17.594v-1.15H20.85v.575zm.574 2.203v.48H17.02v-.959h4.406v.48zm-3.407 7.494c-1.719.877-2.064 3.022-.706 4.38 2.06 2.06 5.357.025 4.515-2.785-.444-1.483-2.412-2.307-3.809-1.595zm2.362 1.312c1.019 1.019.305 2.787-1.123 2.787-.872 0-1.663-.775-1.663-1.628 0-1.412 1.79-2.156 2.786-1.159zm4.808 1.185l-.506.505v3.764c0 4.195.059 4.419 1.285 4.931.971.406 2.191-.017 2.66-.922.366-.709.358-4.452-.013-6.42-.347-1.833-.817-2.363-2.096-2.363-.636 0-.941.115-1.33.505zm2.302 1.72c.122.515.23 2.073.24 3.462.014 2.057-.038 2.58-.283 2.826-.41.41-.963.378-1.423-.082-.354-.353-.384-.639-.384-3.63 0-3.088.02-3.26.406-3.53.67-.47 1.189-.129 1.444.954zm-9.896 2.757v.575H20.85v-1.15H17.594v.575zm-1.15 2.095c0 .528.06.588.587.588.529 0 .582-.054.527-.527-.047-.414-.173-.54-.587-.588-.474-.055-.527-.001-.527.527zm2.108.013c0 .51.063.575.574.575.511 0 .575-.064.575-.575 0-.511-.064-.575-.575-.575-.51 0-.575.064-.575.575zm2.299-.013c0 .528.06.588.587.588.528 0 .582-.054.527-.527-.048-.414-.174-.54-.587-.588-.474-.055-.527-.001-.527.527z"/></mask><path fill-rule="evenodd" clip-rule="evenodd" d="M19.126 4.62c-2.155.548-3.813 1.479-5.652 3.173a24.917 24.917 0 01-1.934 1.585c-1.425 1.024-3.51 3.296-4.53 4.936-1.974 3.174-2.735 6.12-2.593 10.037.078 2.171.173 2.75.705 4.327.339 1 .84 2.208 1.113 2.682.805 1.396 2.322 3.21 3.456 4.135 1.003.817 1.074.844 1.414.537.197-.178.358-.377.358-.442 0-.064-.44-.46-.976-.88-1.254-.98-2.886-3.05-3.627-4.605-.958-2.008-1.366-3.91-1.374-6.41-.015-4.375 1.479-8.22 4.389-11.296l1.006-1.063-.403 1.15c-.484 1.385-.7 4.904-.388 6.357a12.96 12.96 0 001.762 4.264l.76 1.176V39.6h1.15l.002-7.809c.002-4.294.055-8.002.118-8.24.116-.43.12-.43 4.405-.43h4.288v-1.15l-3.976-.006-3.975-.006.626-.569.625-.569h6.54l1.085.706c.598.389 1.908 1.531 2.913 2.54 1.42 1.425 1.983 2.151 2.53 3.27 1.12 2.283 1.29 3.35 1.293 8.095l.003 4.168h1.149l-.003-4.072c-.004-4.381-.175-5.69-1.013-7.753-1.045-2.571-3.208-5.055-6.133-7.042l-1.664-1.13v-1.02c0-.778-.068-1.02-.287-1.02-.224 0-.288-.255-.288-1.15v-1.149h-5.556v1.15c0 .894-.064 1.15-.287 1.15-.221 0-.288.244-.288 1.053 0 .58-.074 1.054-.164 1.054-.359 0-1.982 1.625-2.356 2.358l-.397.779-.459-.754c-1.584-2.606-1.968-6.068-.997-8.994 1.21-3.641 4.354-6.541 8.013-7.39 3.652-.847 7.567.29 10.255 2.979 3.778 3.778 4.343 9.37 1.407 13.913-.73 1.13-.758 1.222-.436 1.457.189.138.415.251.502.251.266 0 1.645-2.269 2.07-3.402.66-1.767.814-2.872.713-5.11-.067-1.486-.219-2.466-.506-3.268l-.41-1.145.785.762c1.927 1.866 3.766 5.389 4.4 8.427.372 1.78.287 5.094-.176 6.859-.745 2.845-2.526 5.716-4.5 7.254l-.887.69.363.45.363.448 1.061-.907c1.98-1.692 3.442-3.92 4.365-6.65.533-1.577.627-2.156.706-4.327.141-3.916-.62-6.863-2.594-10.037-1.02-1.64-3.106-3.913-4.53-4.935a25.95 25.95 0 01-2.03-1.677C27.958 5.414 25.725 4.5 22.383 4.41c-1.444-.04-2.566.032-3.257.208zm1.771 2.882c-.343.15-.799.568-1.013.93-.394.668-1.077.934-2.29.89l-1.315-.05c-.72-.028-.911.053-1.389.587-.412.462-.554.814-.554 1.375 0 .489-.168 1.004-.476 1.457-.953 1.406-.994 2.458-.132 3.387.587.633.721.65 1.001.126.177-.33.143-.478-.184-.827-.22-.234-.4-.53-.4-.66 0-.462.78-1.753 1.243-2.056.452-.296.46-.332.177-.88-.267-.515-.266-.615.009-1.035.345-.527 1.08-.617 1.445-.177.323.39.697.362 1.454-.107.728-.45 1.197-.315 1.728.496.17.259.375.43.456.379.252-.155.36-1.129.165-1.491-.245-.459-.04-1.047.46-1.314.321-.173.537-.145 1.059.136.622.336.684.337 1.227.025 1.11-.637 1.88-.28 1.88.872 0 .4.074.448.576.374.347-.05.774.046 1.076.245.445.29.49.419.395 1.123-.058.438-.165.99-.237 1.23-.108.356.044.592.85 1.324.859.78.981.982.981 1.634 0 .615-.146.9-.847 1.649-.672.718-.808.974-.66 1.237.276.495.603.409 1.405-.37 1.695-1.647 1.662-3.72-.08-5.01-.485-.358-.555-.5-.395-.798.107-.2.194-.707.194-1.127 0-.918-.666-1.814-1.601-2.152-.343-.124-.767-.473-.94-.777-.502-.874-1.678-1.177-2.635-.677-.392.204-.588.206-1.054.007-.72-.307-.818-.306-1.579.025zm-.046 9.487v.575H17.594v-1.15H20.85v.575zm.574 2.203v.48H17.02v-.959h4.406v.48zm-3.407 7.494c-1.719.877-2.064 3.022-.706 4.38 2.06 2.06 5.357.025 4.515-2.785-.444-1.483-2.412-2.307-3.809-1.595zm2.362 1.312c1.019 1.019.305 2.787-1.123 2.787-.872 0-1.663-.775-1.663-1.628 0-1.412 1.79-2.156 2.786-1.159zm4.808 1.185l-.506.505v3.764c0 4.195.059 4.419 1.285 4.931.971.406 2.191-.017 2.66-.922.366-.709.358-4.452-.013-6.42-.347-1.833-.817-2.363-2.096-2.363-.636 0-.941.115-1.33.505zm2.302 1.72c.122.515.23 2.073.24 3.462.014 2.057-.038 2.58-.283 2.826-.41.41-.963.378-1.423-.082-.354-.353-.384-.639-.384-3.63 0-3.088.02-3.26.406-3.53.67-.47 1.189-.129 1.444.954zm-9.896 2.757v.575H20.85v-1.15H17.594v.575zm-1.15 2.095c0 .528.06.588.587.588.529 0 .582-.054.527-.527-.047-.414-.173-.54-.587-.588-.474-.055-.527-.001-.527.527zm2.108.013c0 .51.063.575.574.575.511 0 .575-.064.575-.575 0-.511-.064-.575-.575-.575-.51 0-.575.064-.575.575zm2.299-.013c0 .528.06.588.587.588.528 0 .582-.054.527-.527-.048-.414-.174-.54-.587-.588-.474-.055-.527-.001-.527.527z"/><path fill-rule="evenodd" clip-rule="evenodd" d="M19.126 4.62c-2.155.548-3.813 1.479-5.652 3.173a24.917 24.917 0 01-1.934 1.585c-1.425 1.024-3.51 3.296-4.53 4.936-1.974 3.174-2.735 6.12-2.593 10.037.078 2.171.173 2.75.705 4.327.339 1 .84 2.208 1.113 2.682.805 1.396 2.322 3.21 3.456 4.135 1.003.817 1.074.844 1.414.537.197-.178.358-.377.358-.442 0-.064-.44-.46-.976-.88-1.254-.98-2.886-3.05-3.627-4.605-.958-2.008-1.366-3.91-1.374-6.41-.015-4.375 1.479-8.22 4.389-11.296l1.006-1.063-.403 1.15c-.484 1.385-.7 4.904-.388 6.357a12.96 12.96 0 001.762 4.264l.76 1.176V39.6h1.15l.002-7.809c.002-4.294.055-8.002.118-8.24.116-.43.12-.43 4.405-.43h4.288v-1.15l-3.976-.006-3.975-.006.626-.569.625-.569h6.54l1.085.706c.598.389 1.908 1.531 2.913 2.54 1.42 1.425 1.983 2.151 2.53 3.27 1.12 2.283 1.29 3.35 1.293 8.095l.003 4.168h1.149l-.003-4.072c-.004-4.381-.175-5.69-1.013-7.753-1.045-2.571-3.208-5.055-6.133-7.042l-1.664-1.13v-1.02c0-.778-.068-1.02-.287-1.02-.224 0-.288-.255-.288-1.15v-1.149h-5.556v1.15c0 .894-.064 1.15-.287 1.15-.221 0-.288.244-.288 1.053 0 .58-.074 1.054-.164 1.054-.359 0-1.982 1.625-2.356 2.358l-.397.779-.459-.754c-1.584-2.606-1.968-6.068-.997-8.994 1.21-3.641 4.354-6.541 8.013-7.39 3.652-.847 7.567.29 10.255 2.979 3.778 3.778 4.343 9.37 1.407 13.913-.73 1.13-.758 1.222-.436 1.457.189.138.415.251.502.251.266 0 1.645-2.269 2.07-3.402.66-1.767.814-2.872.713-5.11-.067-1.486-.219-2.466-.506-3.268l-.41-1.145.785.762c1.927 1.866 3.766 5.389 4.4 8.427.372 1.78.287 5.094-.176 6.859-.745 2.845-2.526 5.716-4.5 7.254l-.887.69.363.45.363.448 1.061-.907c1.98-1.692 3.442-3.92 4.365-6.65.533-1.577.627-2.156.706-4.327.141-3.916-.62-6.863-2.594-10.037-1.02-1.64-3.106-3.913-4.53-4.935a25.95 25.95 0 01-2.03-1.677C27.958 5.414 25.725 4.5 22.383 4.41c-1.444-.04-2.566.032-3.257.208zm1.771 2.882c-.343.15-.799.568-1.013.93-.394.668-1.077.934-2.29.89l-1.315-.05c-.72-.028-.911.053-1.389.587-.412.462-.554.814-.554 1.375 0 .489-.168 1.004-.476 1.457-.953 1.406-.994 2.458-.132 3.387.587.633.721.65 1.001.126.177-.33.143-.478-.184-.827-.22-.234-.4-.53-.4-.66 0-.462.78-1.753 1.243-2.056.452-.296.46-.332.177-.88-.267-.515-.266-.615.009-1.035.345-.527 1.08-.617 1.445-.177.323.39.697.362 1.454-.107.728-.45 1.197-.315 1.728.496.17.259.375.43.456.379.252-.155.36-1.129.165-1.491-.245-.459-.04-1.047.46-1.314.321-.173.537-.145 1.059.136.622.336.684.337 1.227.025 1.11-.637 1.88-.28 1.88.872 0 .4.074.448.576.374.347-.05.774.046 1.076.245.445.29.49.419.395 1.123-.058.438-.165.99-.237 1.23-.108.356.044.592.85 1.324.859.78.981.982.981 1.634 0 .615-.146.9-.847 1.649-.672.718-.808.974-.66 1.237.276.495.603.409 1.405-.37 1.695-1.647 1.662-3.72-.08-5.01-.485-.358-.555-.5-.395-.798.107-.2.194-.707.194-1.127 0-.918-.666-1.814-1.601-2.152-.343-.124-.767-.473-.94-.777-.502-.874-1.678-1.177-2.635-.677-.392.204-.588.206-1.054.007-.72-.307-.818-.306-1.579.025zm-.046 9.487v.575H17.594v-1.15H20.85v.575zm.574 2.203v.48H17.02v-.959h4.406v.48zm-3.407 7.494c-1.719.877-2.064 3.022-.706 4.38 2.06 2.06 5.357.025 4.515-2.785-.444-1.483-2.412-2.307-3.809-1.595zm2.362 1.312c1.019 1.019.305 2.787-1.123 2.787-.872 0-1.663-.775-1.663-1.628 0-1.412 1.79-2.156 2.786-1.159zm4.808 1.185l-.506.505v3.764c0 4.195.059 4.419 1.285 4.931.971.406 2.191-.017 2.66-.922.366-.709.358-4.452-.013-6.42-.347-1.833-.817-2.363-2.096-2.363-.636 0-.941.115-1.33.505zm2.302 1.72c.122.515.23 2.073.24 3.462.014 2.057-.038 2.58-.283 2.826-.41.41-.963.378-1.423-.082-.354-.353-.384-.639-.384-3.63 0-3.088.02-3.26.406-3.53.67-.47 1.189-.129 1.444.954zm-9.896 2.757v.575H20.85v-1.15H17.594v.575zm-1.15 2.095c0 .528.06.588.587.588.529 0 .582-.054.527-.527-.047-.414-.173-.54-.587-.588-.474-.055-.527-.001-.527.527zm2.108.013c0 .51.063.575.574.575.511 0 .575-.064.575-.575 0-.511-.064-.575-.575-.575-.51 0-.575.064-.575.575zm2.299-.013c0 .528.06.588.587.588.528 0 .582-.054.527-.527-.048-.414-.174-.54-.587-.588-.474-.055-.527-.001-.527.527z" stroke="currentColor" stroke-width=".4" mask="url(#bba)"/></svg></svg>